<svg width="306" height="77" viewBox="0 0 306 77" fill="none" xmlns="http://www.w3.org/2000/svg">
<path d="M47.6016 48.6011H71.4022V72.4017H47.6016V48.6011Z" fill="#FFD645"/>
<path fill-rule="evenodd" clip-rule="evenodd" d="M47.6012 1H23.8006H0V24.8006V48.6012V72.4019H23.8006V48.6012H47.6012V24.8006V1ZM47.6016 1H71.4022V24.8006H47.6016V1Z" fill="white"/>
<path d="M92.6189 0.501512C92.9717 0.501512 93.3371 0.602315 93.7151 0.80392C94.1183 0.980324 94.4207 1.21973 94.6223 1.52214L103.808 15.6597L101.918 15.5841L111.33 1.52214C111.809 0.841721 112.427 0.501512 113.183 0.501512C113.787 0.501512 114.329 0.715718 114.808 1.14413C115.287 1.57254 115.526 2.12695 115.526 2.80737V24.6941C115.526 25.3494 115.312 25.9038 114.884 26.3574C114.455 26.7858 113.888 27 113.183 27C112.477 27 111.897 26.7858 111.444 26.3574C111.015 25.9038 110.801 25.3494 110.801 24.6941V6.88988L112.275 7.23009L104.564 18.9862C104.337 19.2634 104.047 19.5028 103.695 19.7044C103.367 19.906 103.027 19.9942 102.674 19.969C102.346 19.9942 102.006 19.906 101.653 19.7044C101.326 19.5028 101.048 19.2634 100.822 18.9862L93.6017 7.5703L94.5845 5.56684V24.6941C94.5845 25.3494 94.3829 25.9038 93.9797 26.3574C93.5765 26.7858 93.0473 27 92.3921 27C91.7621 27 91.2454 26.7858 90.8422 26.3574C90.439 25.9038 90.2374 25.3494 90.2374 24.6941V2.80737C90.2374 2.17736 90.4642 1.63554 90.9178 1.18193C91.3966 0.728318 91.9637 0.501512 92.6189 0.501512ZM132.549 0.539312C134.364 0.539312 135.977 0.879521 137.388 1.55994C138.799 2.24036 139.984 3.19798 140.941 4.43282C141.924 5.64245 142.655 7.05368 143.134 8.66652C143.638 10.2542 143.89 11.9552 143.89 13.7697C143.89 16.2141 143.449 18.4444 142.567 20.4604C141.685 22.4513 140.399 24.0389 138.711 25.2234C137.048 26.4078 134.994 27 132.549 27H123.515C122.86 27 122.305 26.7858 121.852 26.3574C121.423 25.9038 121.209 25.3494 121.209 24.6941V2.84517C121.209 2.18996 121.423 1.64814 121.852 1.21973C122.305 0.766118 122.86 0.539312 123.515 0.539312H132.549ZM132.171 22.6529C133.759 22.6529 135.057 22.2497 136.065 21.4433C137.073 20.6116 137.804 19.528 138.257 18.1924C138.736 16.8315 138.976 15.3573 138.976 13.7697C138.976 12.5852 138.837 11.4638 138.56 10.4054C138.308 9.32174 137.905 8.37672 137.35 7.5703C136.796 6.73867 136.09 6.08346 135.233 5.60464C134.376 5.12583 133.356 4.88643 132.171 4.88643H125.556L125.934 4.54622V23.0687L125.707 22.6529H132.171ZM150.612 27C149.907 27 149.327 26.7858 148.874 26.3574C148.445 25.9038 148.231 25.3494 148.231 24.6941V2.84517C148.231 2.18996 148.445 1.64814 148.874 1.21973C149.327 0.766118 149.882 0.539312 150.537 0.539312H162.822C163.477 0.539312 164.019 0.753518 164.448 1.18193C164.901 1.58514 165.128 2.11435 165.128 2.76957C165.128 3.32399 164.901 3.8154 164.448 4.24381C164.019 4.67222 163.477 4.88643 162.822 4.88643H152.616L152.956 4.43282V12.0308L152.691 11.5394H161.121C161.776 11.5394 162.318 11.7536 162.746 12.182C163.2 12.5852 163.427 13.1144 163.427 13.7697C163.427 14.3241 163.2 14.8155 162.746 15.2439C162.318 15.6723 161.776 15.8865 161.121 15.8865H152.616L152.956 15.5463V24.6941C152.956 25.3494 152.717 25.9038 152.238 26.3574C151.784 26.7858 151.242 27 150.612 27ZM187.647 1.82455C188.303 2.15215 188.681 2.66877 188.781 3.37439C188.907 4.08001 188.731 4.72262 188.252 5.30224C187.924 5.75585 187.496 6.00785 186.967 6.05826C186.463 6.10866 185.946 6.00785 185.417 5.75585C184.812 5.47864 184.17 5.26444 183.489 5.11323C182.834 4.96203 182.141 4.88643 181.41 4.88643C180.049 4.88643 178.827 5.10063 177.743 5.52904C176.685 5.95745 175.778 6.57487 175.022 7.38129C174.266 8.16251 173.686 9.09493 173.283 10.1786C172.905 11.2622 172.716 12.4592 172.716 13.7697C172.716 15.3069 172.93 16.6425 173.359 17.7766C173.812 18.9106 174.43 19.8556 175.211 20.6116C175.992 21.3677 176.912 21.9347 177.97 22.3127C179.029 22.6655 180.175 22.8419 181.41 22.8419C182.091 22.8419 182.771 22.7789 183.451 22.6529C184.132 22.5269 184.787 22.3001 185.417 21.9725C185.946 21.7205 186.463 21.6323 186.967 21.7079C187.496 21.7835 187.937 22.0481 188.29 22.5017C188.794 23.1317 188.97 23.7869 188.819 24.4673C188.693 25.1226 188.315 25.6014 187.685 25.9038C187.03 26.2314 186.349 26.5086 185.644 26.7354C184.963 26.937 184.27 27.0882 183.565 27.189C182.859 27.315 182.141 27.378 181.41 27.378C179.596 27.378 177.869 27.0882 176.231 26.5086C174.619 25.929 173.17 25.0721 171.884 23.9381C170.624 22.8041 169.629 21.3929 168.898 19.7044C168.167 17.9908 167.802 16.0125 167.802 13.7697C167.802 11.8292 168.129 10.04 168.785 8.40192C169.465 6.76387 170.41 5.35264 171.62 4.16821C172.855 2.95858 174.304 2.02615 175.967 1.37093C177.63 0.690517 179.444 0.350308 181.41 0.350308C182.519 0.350308 183.603 0.476311 184.661 0.728317C185.719 0.980323 186.715 1.34573 187.647 1.82455ZM215.251 0.539312C217.67 0.539312 219.472 1.10633 220.656 2.24036C221.841 3.37439 222.433 5.05023 222.433 7.26789C222.433 8.45232 222.143 9.49815 221.563 10.4054C220.984 11.2874 220.127 11.9804 218.993 12.4844C217.859 12.9632 216.46 13.2026 214.797 13.2026L214.948 11.5016C215.729 11.5016 216.624 11.615 217.632 11.8418C218.64 12.0434 219.61 12.4214 220.543 12.9758C221.5 13.505 222.282 14.2611 222.886 15.2439C223.516 16.2015 223.831 17.4364 223.831 18.9484C223.831 20.6116 223.554 21.9725 223 23.0309C222.471 24.0893 221.765 24.9083 220.883 25.488C220.001 26.0676 219.056 26.4708 218.048 26.6976C217.04 26.8992 216.07 27 215.137 27H205.725C205.07 27 204.515 26.7858 204.061 26.3574C203.633 25.9038 203.419 25.3494 203.419 24.6941V2.84517C203.419 2.18996 203.633 1.64814 204.061 1.21973C204.515 0.766118 205.07 0.539312 205.725 0.539312H215.251ZM214.57 4.99983H207.842L208.333 4.39501V11.237L207.879 10.8968H214.684C215.414 10.8968 216.07 10.6574 216.649 10.1786C217.229 9.69975 217.519 9.00673 217.519 8.09951C217.519 7.01588 217.241 6.23466 216.687 5.75585C216.158 5.25184 215.452 4.99983 214.57 4.99983ZM214.873 15.3573H207.993L208.333 15.0549V23.0309L207.955 22.6529H215.137C216.296 22.6529 217.216 22.3505 217.897 21.7457C218.577 21.1156 218.917 20.1832 218.917 18.9484C218.917 17.8144 218.69 16.9953 218.237 16.4913C217.783 15.9873 217.241 15.6723 216.611 15.5463C215.981 15.4203 215.402 15.3573 214.873 15.3573ZM237.904 6.47407L229.739 25.677C229.562 26.1558 229.285 26.5338 228.907 26.811C228.554 27.063 228.164 27.189 227.735 27.189C227.055 27.189 226.551 27 226.223 26.622C225.896 26.244 225.732 25.7778 225.732 25.2234C225.732 24.9965 225.77 24.7571 225.845 24.5051L235.258 1.90015C235.459 1.39614 235.762 1.00553 236.165 0.728317C236.593 0.451111 237.047 0.337708 237.526 0.388108C237.979 0.388108 238.395 0.526712 238.773 0.80392C239.176 1.05593 239.466 1.42134 239.643 1.90015L248.942 24.0515C249.068 24.3791 249.131 24.6815 249.131 24.9587C249.131 25.6392 248.904 26.181 248.45 26.5842C248.022 26.9874 247.543 27.189 247.014 27.189C246.56 27.189 246.144 27.0504 245.766 26.7732C245.413 26.496 245.136 26.118 244.935 25.6392L236.807 6.70087L237.904 6.47407ZM230.911 21.0652L232.99 16.7181H243.196L243.914 21.0652H230.911ZM272.404 0.539312C273.008 0.539312 273.5 0.740918 273.878 1.14413C274.256 1.54734 274.445 2.05135 274.445 2.65617V24.6941C274.445 25.3494 274.218 25.9038 273.764 26.3574C273.336 26.7858 272.794 27 272.139 27C271.811 27 271.471 26.9496 271.118 26.8488C270.791 26.7228 270.539 26.559 270.362 26.3574L255.507 7.49469L256.489 6.88988V24.8831C256.489 25.488 256.288 25.992 255.885 26.3952C255.507 26.7984 255.003 27 254.373 27C253.768 27 253.276 26.7984 252.898 26.3952C252.52 25.992 252.331 25.488 252.331 24.8831V2.84517C252.331 2.18996 252.545 1.64814 252.974 1.21973C253.427 0.766118 253.982 0.539312 254.637 0.539312C254.99 0.539312 255.355 0.614915 255.733 0.76612C256.111 0.892123 256.389 1.09373 256.565 1.37093L270.967 19.7422L270.325 20.1958V2.65617C270.325 2.05135 270.514 1.54734 270.892 1.14413C271.27 0.740918 271.774 0.539312 272.404 0.539312ZM298.348 27C297.643 27 297.076 26.7102 296.647 26.1306L287.915 14.6391L291.355 11.1236L300.39 23.0687C300.742 23.5475 300.919 24.0641 300.919 24.6185C300.919 25.3242 300.654 25.9038 300.125 26.3574C299.596 26.7858 299.004 27 298.348 27ZM298.802 0.350308C299.407 0.350308 299.898 0.602314 300.276 1.10633C300.679 1.58514 300.881 2.07655 300.881 2.58057C300.881 3.10978 300.654 3.60119 300.201 4.0548L284.362 19.213L284.173 13.8075L296.95 1.21973C297.529 0.640115 298.147 0.350308 298.802 0.350308ZM282.472 27C281.766 27 281.199 26.7858 280.771 26.3574C280.342 25.9038 280.128 25.3494 280.128 24.6941V2.84517C280.128 2.18996 280.355 1.64814 280.809 1.21973C281.262 0.766118 281.842 0.539312 282.548 0.539312C283.253 0.539312 283.808 0.766118 284.211 1.21973C284.639 1.64814 284.853 2.18996 284.853 2.84517V24.6941C284.853 25.3494 284.639 25.9038 284.211 26.3574C283.782 26.7858 283.203 27 282.472 27Z" fill="white"/>
<path d="M93.2993 72.4023C92.9465 72.4023 92.6567 72.2952 92.4299 72.081C92.2031 71.8542 92.0897 71.577 92.0897 71.2494V60.2871H94.5467V71.2494C94.5467 71.577 94.427 71.8542 94.1876 72.081C93.9608 72.2952 93.6647 72.4023 93.2993 72.4023ZM89.1223 61.3456C88.7947 61.3456 88.5175 61.2448 88.2907 61.0431C88.0765 60.8415 87.9694 60.5769 87.9694 60.2493C87.9694 59.9217 88.0765 59.6634 88.2907 59.4744C88.5175 59.2728 88.7947 59.172 89.1223 59.172H97.5141C97.8417 59.172 98.1126 59.2728 98.3268 59.4744C98.5536 59.676 98.667 59.9406 98.667 60.2682C98.667 60.5958 98.5536 60.8604 98.3268 61.062C98.1126 61.2511 97.8417 61.3456 97.5141 61.3456H89.1223ZM105.773 62.1016C106.68 62.1016 107.367 62.2969 107.833 62.6875C108.312 63.0781 108.64 63.601 108.816 64.2562C108.993 64.8988 109.081 65.6171 109.081 66.4109V71.2494C109.081 71.577 108.974 71.8542 108.759 72.081C108.545 72.2952 108.274 72.4023 107.947 72.4023C107.619 72.4023 107.348 72.2952 107.134 72.081C106.92 71.8542 106.813 71.577 106.813 71.2494V66.4109C106.813 65.9951 106.762 65.6234 106.661 65.2958C106.561 64.9556 106.378 64.6846 106.113 64.483C105.849 64.2814 105.471 64.1806 104.979 64.1806C104.501 64.1806 104.091 64.2814 103.751 64.483C103.411 64.6846 103.152 64.9556 102.976 65.2958C102.812 65.6234 102.73 65.9951 102.73 66.4109V71.2494C102.73 71.577 102.623 71.8542 102.409 72.081C102.195 72.2952 101.924 72.4023 101.596 72.4023C101.269 72.4023 100.998 72.2952 100.783 72.081C100.569 71.8542 100.462 71.577 100.462 71.2494V59.5689C100.462 59.2413 100.569 58.9704 100.783 58.7562C100.998 58.5294 101.269 58.416 101.596 58.416C101.924 58.416 102.195 58.5294 102.409 58.7562C102.623 58.9704 102.73 59.2413 102.73 59.5689V64.2562L102.447 64.1995C102.56 63.9853 102.718 63.7585 102.919 63.5191C103.121 63.2671 103.367 63.034 103.656 62.8198C103.946 62.6056 104.267 62.4355 104.62 62.3095C104.973 62.1709 105.357 62.1016 105.773 62.1016ZM116.3 72.5913C115.229 72.5913 114.296 72.3708 113.502 71.9298C112.721 71.4762 112.116 70.8651 111.688 70.0965C111.272 69.3279 111.064 68.4584 111.064 67.4882C111.064 66.3542 111.291 65.3903 111.745 64.5964C112.211 63.79 112.816 63.1726 113.559 62.7442C114.302 62.3158 115.09 62.1016 115.922 62.1016C116.564 62.1016 117.169 62.2339 117.736 62.4985C118.316 62.7631 118.826 63.1285 119.267 63.5947C119.708 64.0483 120.054 64.5775 120.306 65.1824C120.571 65.7872 120.703 66.4298 120.703 67.1102C120.691 67.4126 120.571 67.6583 120.344 67.8473C120.117 68.0363 119.853 68.1308 119.55 68.1308H112.33L111.763 66.2408H118.7L118.284 66.6188V66.1085C118.259 65.7431 118.127 65.4155 117.887 65.1257C117.66 64.8358 117.371 64.609 117.018 64.4452C116.678 64.2688 116.312 64.1806 115.922 64.1806C115.544 64.1806 115.191 64.231 114.863 64.3318C114.536 64.4326 114.252 64.6027 114.013 64.8421C113.773 65.0816 113.584 65.4029 113.446 65.8061C113.307 66.2093 113.238 66.7196 113.238 67.337C113.238 68.0174 113.376 68.597 113.653 69.0759C113.943 69.5421 114.309 69.9012 114.75 70.1532C115.203 70.3926 115.682 70.5123 116.186 70.5123C116.652 70.5123 117.024 70.4745 117.301 70.3989C117.579 70.3233 117.799 70.2351 117.963 70.1343C118.139 70.0209 118.297 69.9264 118.435 69.8508C118.662 69.7374 118.876 69.6807 119.078 69.6807C119.355 69.6807 119.582 69.7752 119.758 69.9642C119.947 70.1532 120.042 70.3737 120.042 70.6257C120.042 70.9659 119.865 71.2746 119.513 71.5518C119.185 71.829 118.725 72.0747 118.133 72.2889C117.541 72.4905 116.93 72.5913 116.3 72.5913ZM134.087 59.172C135.297 59.172 136.198 59.4555 136.79 60.0225C137.382 60.5895 137.678 61.4275 137.678 62.5363C137.678 63.1285 137.533 63.6514 137.244 64.105C136.954 64.546 136.525 64.8925 135.958 65.1446C135.391 65.384 134.692 65.5037 133.86 65.5037L133.936 64.6531C134.327 64.6531 134.774 64.7098 135.278 64.8232C135.782 64.924 136.267 65.1131 136.733 65.3903C137.212 65.6549 137.603 66.0329 137.905 66.5243C138.22 67.0031 138.378 67.6205 138.378 68.3765C138.378 69.2082 138.239 69.8886 137.962 70.4178C137.697 70.947 137.344 71.3565 136.903 71.6463C136.462 71.9361 135.99 72.1377 135.486 72.2511C134.982 72.3519 134.497 72.4023 134.03 72.4023H129.324C128.997 72.4023 128.719 72.2952 128.493 72.081C128.278 71.8542 128.171 71.577 128.171 71.2494V60.3249C128.171 59.9973 128.278 59.7264 128.493 59.5122C128.719 59.2854 128.997 59.172 129.324 59.172H134.087ZM133.747 61.4023H130.383L130.628 61.0998V64.5208L130.402 64.3507H133.804C134.169 64.3507 134.497 64.231 134.786 63.9916C135.076 63.7522 135.221 63.4057 135.221 62.9521C135.221 62.4103 135.083 62.0197 134.805 61.7803C134.541 61.5283 134.188 61.4023 133.747 61.4023ZM133.898 66.581H130.458L130.628 66.4298V70.4178L130.439 70.2288H134.03C134.61 70.2288 135.07 70.0776 135.41 69.7752C135.75 69.4602 135.92 68.994 135.92 68.3765C135.92 67.8095 135.807 67.4 135.58 67.148C135.353 66.896 135.083 66.7385 134.768 66.6755C134.453 66.6125 134.163 66.581 133.898 66.581ZM148.646 62.1016C148.973 62.1016 149.244 62.2087 149.458 62.4229C149.673 62.6371 149.78 62.9143 149.78 63.2545V71.2494C149.78 71.577 149.673 71.8542 149.458 72.081C149.244 72.2952 148.973 72.4023 148.646 72.4023C148.318 72.4023 148.047 72.2952 147.833 72.081C147.619 71.8542 147.512 71.577 147.512 71.2494V70.3233L147.927 70.4934C147.927 70.6572 147.839 70.8588 147.663 71.0982C147.486 71.325 147.247 71.5518 146.945 71.7786C146.642 72.0054 146.283 72.2007 145.867 72.3645C145.464 72.5157 145.023 72.5913 144.544 72.5913C143.675 72.5913 142.887 72.3708 142.182 71.9298C141.476 71.4762 140.915 70.8588 140.5 70.0776C140.096 69.2838 139.895 68.3765 139.895 67.3559C139.895 66.3227 140.096 65.4155 140.5 64.6342C140.915 63.8404 141.47 63.223 142.163 62.782C142.856 62.3284 143.624 62.1016 144.469 62.1016C145.01 62.1016 145.508 62.1835 145.962 62.3473C146.415 62.5111 146.806 62.719 147.134 62.971C147.474 63.223 147.732 63.4813 147.909 63.7459C148.098 63.9979 148.192 64.2121 148.192 64.3885L147.512 64.6342V63.2545C147.512 62.9269 147.619 62.656 147.833 62.4418C148.047 62.215 148.318 62.1016 148.646 62.1016ZM144.828 70.5123C145.382 70.5123 145.867 70.3737 146.283 70.0965C146.699 69.8193 147.02 69.4413 147.247 68.9625C147.486 68.4836 147.606 67.9481 147.606 67.3559C147.606 66.7511 147.486 66.2093 147.247 65.7305C147.02 65.2517 146.699 64.8736 146.283 64.5964C145.867 64.3192 145.382 64.1806 144.828 64.1806C144.286 64.1806 143.807 64.3192 143.391 64.5964C142.976 64.8736 142.648 65.2517 142.409 65.7305C142.182 66.2093 142.068 66.7511 142.068 67.3559C142.068 67.9481 142.182 68.4836 142.409 68.9625C142.648 69.4413 142.976 69.8193 143.391 70.0965C143.807 70.3737 144.286 70.5123 144.828 70.5123ZM157.641 62.1016C158.573 62.1016 159.279 62.2969 159.758 62.6875C160.249 63.0781 160.583 63.601 160.76 64.2562C160.949 64.8988 161.043 65.6171 161.043 66.4109V71.2494C161.043 71.577 160.936 71.8542 160.722 72.081C160.508 72.2952 160.237 72.4023 159.909 72.4023C159.581 72.4023 159.311 72.2952 159.096 72.081C158.882 71.8542 158.775 71.577 158.775 71.2494V66.4109C158.775 65.9951 158.718 65.6234 158.605 65.2958C158.504 64.9556 158.315 64.6846 158.038 64.483C157.761 64.2814 157.364 64.1806 156.847 64.1806C156.343 64.1806 155.915 64.2814 155.562 64.483C155.222 64.6846 154.957 64.9556 154.768 65.2958C154.592 65.6234 154.504 65.9951 154.504 66.4109V71.2494C154.504 71.577 154.396 71.8542 154.182 72.081C153.968 72.2952 153.697 72.4023 153.369 72.4023C153.042 72.4023 152.771 72.2952 152.557 72.081C152.343 71.8542 152.235 71.577 152.235 71.2494V63.4435C152.235 63.1159 152.343 62.845 152.557 62.6308C152.771 62.404 153.042 62.2906 153.369 62.2906C153.697 62.2906 153.968 62.404 154.182 62.6308C154.396 62.845 154.504 63.1159 154.504 63.4435V64.2562L154.22 64.1995C154.333 63.9853 154.497 63.7585 154.711 63.5191C154.926 63.2671 155.178 63.034 155.467 62.8198C155.757 62.6056 156.085 62.4355 156.45 62.3095C156.816 62.1709 157.213 62.1016 157.641 62.1016ZM164.818 72.4023C164.49 72.4023 164.219 72.2952 164.005 72.081C163.791 71.8542 163.684 71.577 163.684 71.2494V59.5689C163.684 59.2413 163.791 58.9704 164.005 58.7562C164.219 58.5294 164.49 58.416 164.818 58.416C165.145 58.416 165.416 58.5294 165.63 58.7562C165.844 58.9704 165.952 59.2413 165.952 59.5689V71.2494C165.952 71.577 165.844 71.8542 165.63 72.081C165.416 72.2952 165.145 72.4023 164.818 72.4023ZM170.828 62.2906C171.118 62.2906 171.37 62.4103 171.584 62.6497C171.798 62.8891 171.905 63.1222 171.905 63.349C171.905 63.6514 171.754 63.9349 171.452 64.1995L165.763 69.435L165.668 66.8267L169.996 62.6497C170.236 62.4103 170.513 62.2906 170.828 62.2906ZM171.111 72.3834C170.784 72.3834 170.507 72.2574 170.28 72.0054L166.783 68.3009L168.503 66.7133L171.905 70.4178C172.145 70.6698 172.264 70.9533 172.264 71.2683C172.264 71.5959 172.132 71.8668 171.867 72.081C171.615 72.2826 171.363 72.3834 171.111 72.3834ZM176.391 71.2494C176.391 71.577 176.284 71.8542 176.07 72.081C175.856 72.2952 175.585 72.4023 175.257 72.4023C174.929 72.4023 174.658 72.2952 174.444 72.081C174.23 71.8542 174.123 71.577 174.123 71.2494V63.4435C174.123 63.1159 174.23 62.845 174.444 62.6308C174.658 62.404 174.929 62.2906 175.257 62.2906C175.585 62.2906 175.856 62.404 176.07 62.6308C176.284 62.845 176.391 63.1159 176.391 63.4435V71.2494ZM175.238 61.062C174.81 61.062 174.507 60.9927 174.331 60.8541C174.154 60.7155 174.066 60.4698 174.066 60.117V59.7579C174.066 59.3925 174.161 59.1468 174.35 59.0208C174.551 58.8822 174.854 58.8129 175.257 58.8129C175.698 58.8129 176.007 58.8822 176.183 59.0208C176.36 59.1594 176.448 59.4051 176.448 59.7579V60.117C176.448 60.4824 176.353 60.7344 176.164 60.873C175.975 60.999 175.667 61.062 175.238 61.062ZM184.128 62.1016C185.06 62.1016 185.766 62.2969 186.244 62.6875C186.736 63.0781 187.07 63.601 187.246 64.2562C187.435 64.8988 187.53 65.6171 187.53 66.4109V71.2494C187.53 71.577 187.423 71.8542 187.208 72.081C186.994 72.2952 186.723 72.4023 186.396 72.4023C186.068 72.4023 185.797 72.2952 185.583 72.081C185.369 71.8542 185.262 71.577 185.262 71.2494V66.4109C185.262 65.9951 185.205 65.6234 185.091 65.2958C184.991 64.9556 184.802 64.6846 184.524 64.483C184.247 64.2814 183.85 64.1806 183.334 64.1806C182.83 64.1806 182.401 64.2814 182.048 64.483C181.708 64.6846 181.444 64.9556 181.255 65.2958C181.078 65.6234 180.99 65.9951 180.99 66.4109V71.2494C180.99 71.577 180.883 71.8542 180.669 72.081C180.455 72.2952 180.184 72.4023 179.856 72.4023C179.528 72.4023 179.257 72.2952 179.043 72.081C178.829 71.8542 178.722 71.577 178.722 71.2494V63.4435C178.722 63.1159 178.829 62.845 179.043 62.6308C179.257 62.404 179.528 62.2906 179.856 62.2906C180.184 62.2906 180.455 62.404 180.669 62.6308C180.883 62.845 180.99 63.1159 180.99 63.4435V64.2562L180.707 64.1995C180.82 63.9853 180.984 63.7585 181.198 63.5191C181.412 63.2671 181.664 63.034 181.954 62.8198C182.244 62.6056 182.571 62.4355 182.937 62.3095C183.302 62.1709 183.699 62.1016 184.128 62.1016ZM194.177 62.1016C194.706 62.1016 195.191 62.1835 195.632 62.3473C196.073 62.5111 196.451 62.719 196.766 62.971C197.094 63.223 197.346 63.4813 197.522 63.7459C197.711 63.9979 197.806 64.2121 197.806 64.3885L197.314 64.6342V63.2545C197.314 62.9269 197.422 62.656 197.636 62.4418C197.85 62.215 198.121 62.1016 198.448 62.1016C198.776 62.1016 199.047 62.2087 199.261 62.4229C199.475 62.6371 199.583 62.9143 199.583 63.2545V71.6652C199.583 72.7615 199.343 73.6372 198.864 74.2924C198.398 74.9602 197.781 75.439 197.012 75.7288C196.243 76.0312 195.418 76.1824 194.536 76.1824C194.284 76.1824 193.956 76.1509 193.553 76.0879C193.15 76.0249 192.766 75.9493 192.4 75.8611C192.035 75.7729 191.758 75.691 191.569 75.6154C191.191 75.4516 190.926 75.2437 190.775 74.9917C190.636 74.7523 190.611 74.494 190.699 74.2168C190.813 73.8514 190.995 73.5994 191.247 73.4608C191.499 73.3348 191.764 73.3222 192.041 73.423C192.167 73.4608 192.375 73.5364 192.665 73.6498C192.955 73.7632 193.27 73.864 193.61 73.9522C193.963 74.053 194.271 74.1034 194.536 74.1034C195.481 74.1034 196.18 73.9144 196.634 73.5364C197.088 73.1584 197.314 72.6354 197.314 71.9676V70.3233L197.541 70.4934C197.541 70.6572 197.453 70.8588 197.277 71.0982C197.113 71.325 196.88 71.5518 196.577 71.7786C196.288 72.0054 195.941 72.2007 195.538 72.3645C195.135 72.5157 194.706 72.5913 194.253 72.5913C193.358 72.5913 192.552 72.3708 191.833 71.9298C191.115 71.4762 190.548 70.8588 190.132 70.0776C189.716 69.2838 189.509 68.3765 189.509 67.3559C189.509 66.3227 189.716 65.4155 190.132 64.6342C190.548 63.8404 191.109 63.223 191.814 62.782C192.52 62.3284 193.308 62.1016 194.177 62.1016ZM194.536 64.1806C193.969 64.1806 193.471 64.3192 193.043 64.5964C192.615 64.8736 192.281 65.2517 192.041 65.7305C191.802 66.2093 191.682 66.7511 191.682 67.3559C191.682 67.9481 191.802 68.4836 192.041 68.9625C192.281 69.4413 192.615 69.8193 193.043 70.0965C193.471 70.3737 193.969 70.5123 194.536 70.5123C195.116 70.5123 195.62 70.3737 196.048 70.0965C196.477 69.8193 196.81 69.4413 197.05 68.9625C197.289 68.4836 197.409 67.9481 197.409 67.3559C197.409 66.7511 197.289 66.2093 197.05 65.7305C196.81 65.2517 196.477 64.8736 196.048 64.5964C195.62 64.3192 195.116 64.1806 194.536 64.1806ZM208.673 59.172H215.005C215.332 59.172 215.603 59.2791 215.817 59.4933C216.044 59.6949 216.158 59.9595 216.158 60.2871C216.158 60.6021 216.044 60.8604 215.817 61.062C215.603 61.2511 215.332 61.3456 215.005 61.3456H209.713L209.883 61.0242V64.7098L209.731 64.5586H214.154C214.482 64.5586 214.753 64.6657 214.967 64.8799C215.194 65.0816 215.307 65.3462 215.307 65.6738C215.307 65.9888 215.194 66.2471 214.967 66.4487C214.753 66.6377 214.482 66.7322 214.154 66.7322H209.788L209.883 66.581V70.3989L209.731 70.2288H215.005C215.332 70.2288 215.603 70.3422 215.817 70.569C216.044 70.7832 216.158 71.0352 216.158 71.325C216.158 71.64 216.044 71.8983 215.817 72.0999C215.603 72.3015 215.332 72.4023 215.005 72.4023H208.673C208.345 72.4023 208.068 72.2952 207.841 72.081C207.627 71.8542 207.52 71.577 207.52 71.2494V60.3249C207.52 59.9973 207.627 59.7264 207.841 59.5122C208.068 59.2854 208.345 59.172 208.673 59.172ZM218.355 62.2906C218.721 62.2906 219.029 62.4481 219.281 62.7631L225.594 70.6068C225.758 70.8084 225.84 71.0352 225.84 71.2872C225.84 71.6022 225.72 71.8731 225.481 72.0999C225.241 72.3267 224.977 72.4401 224.687 72.4401C224.321 72.4401 224.013 72.2763 223.761 71.9487L217.448 64.105C217.284 63.9034 217.202 63.6766 217.202 63.4246C217.202 63.097 217.316 62.8261 217.542 62.6119C217.782 62.3977 218.053 62.2906 218.355 62.2906ZM218.374 72.4212C218.122 72.4212 217.87 72.3267 217.618 72.1377C217.379 71.9361 217.259 71.6967 217.259 71.4195C217.259 71.1675 217.353 70.9281 217.542 70.7013L220.434 67.1669L221.568 69.057L219.281 71.9487C219.042 72.2637 218.739 72.4212 218.374 72.4212ZM224.668 62.2906C224.97 62.2906 225.222 62.3977 225.424 62.6119C225.638 62.8135 225.745 63.0466 225.745 63.3112C225.745 63.4372 225.726 63.5632 225.689 63.6892C225.651 63.8152 225.581 63.9349 225.481 64.0483L222.627 67.526L221.436 65.8817L223.761 62.8009C224.013 62.4607 224.315 62.2906 224.668 62.2906ZM232.593 62.1016C233.475 62.1016 234.262 62.3284 234.956 62.782C235.661 63.223 236.216 63.8341 236.619 64.6153C237.035 65.3966 237.242 66.3038 237.242 67.337C237.242 68.3702 237.035 69.2838 236.619 70.0776C236.216 70.8588 235.667 71.4762 234.974 71.9298C234.294 72.3708 233.525 72.5913 232.669 72.5913C232.165 72.5913 231.692 72.5094 231.251 72.3456C230.81 72.1818 230.419 71.9739 230.079 71.7219C229.752 71.4699 229.493 71.2179 229.304 70.9659C229.128 70.7013 229.04 70.4808 229.04 70.3044L229.626 70.0587V75.0295C229.626 75.3571 229.518 75.628 229.304 75.8422C229.09 76.069 228.819 76.1824 228.492 76.1824C228.164 76.1824 227.893 76.0753 227.679 75.8611C227.465 75.6469 227.358 75.3697 227.358 75.0295V63.4435C227.358 63.1159 227.465 62.845 227.679 62.6308C227.893 62.404 228.164 62.2906 228.492 62.2906C228.819 62.2906 229.09 62.404 229.304 62.6308C229.518 62.845 229.626 63.1159 229.626 63.4435V64.3696L229.304 64.1995C229.304 64.0357 229.392 63.8404 229.569 63.6136C229.745 63.3742 229.985 63.1411 230.287 62.9143C230.589 62.6749 230.936 62.4796 231.327 62.3284C231.73 62.1772 232.152 62.1016 232.593 62.1016ZM232.309 64.1806C231.755 64.1806 231.27 64.3192 230.854 64.5964C230.438 64.8736 230.111 65.2517 229.871 65.7305C229.644 66.1967 229.531 66.7322 229.531 67.337C229.531 67.9292 229.644 68.471 229.871 68.9625C230.111 69.4413 230.438 69.8193 230.854 70.0965C231.27 70.3737 231.755 70.5123 232.309 70.5123C232.864 70.5123 233.343 70.3737 233.746 70.0965C234.162 69.8193 234.483 69.4413 234.71 68.9625C234.949 68.471 235.069 67.9292 235.069 67.337C235.069 66.7322 234.949 66.1967 234.71 65.7305C234.483 65.2517 234.162 64.8736 233.746 64.5964C233.343 64.3192 232.864 64.1806 232.309 64.1806ZM243.989 72.5913C242.918 72.5913 241.985 72.3708 241.191 71.9298C240.41 71.4762 239.805 70.8651 239.377 70.0965C238.961 69.3279 238.753 68.4584 238.753 67.4882C238.753 66.3542 238.98 65.3903 239.434 64.5964C239.9 63.79 240.505 63.1726 241.248 62.7442C241.991 62.3158 242.779 62.1016 243.611 62.1016C244.253 62.1016 244.858 62.2339 245.425 62.4985C246.005 62.7631 246.515 63.1285 246.956 63.5947C247.397 64.0483 247.744 64.5775 247.996 65.1824C248.26 65.7872 248.392 66.4298 248.392 67.1102C248.38 67.4126 248.26 67.6583 248.033 67.8473C247.807 68.0363 247.542 68.1308 247.24 68.1308H240.02L239.452 66.2408H246.389L245.973 66.6188V66.1085C245.948 65.7431 245.816 65.4155 245.576 65.1257C245.349 64.8358 245.06 64.609 244.707 64.4452C244.367 64.2688 244.001 64.1806 243.611 64.1806C243.233 64.1806 242.88 64.231 242.552 64.3318C242.225 64.4326 241.941 64.6027 241.702 64.8421C241.462 65.0816 241.273 65.4029 241.135 65.8061C240.996 66.2093 240.927 66.7196 240.927 67.337C240.927 68.0174 241.065 68.597 241.343 69.0759C241.632 69.5421 241.998 69.9012 242.439 70.1532C242.892 70.3926 243.371 70.5123 243.875 70.5123C244.341 70.5123 244.713 70.4745 244.99 70.3989C245.268 70.3233 245.488 70.2351 245.652 70.1343C245.828 70.0209 245.986 69.9264 246.124 69.8508C246.351 69.7374 246.565 69.6807 246.767 69.6807C247.044 69.6807 247.271 69.7752 247.447 69.9642C247.636 70.1532 247.731 70.3737 247.731 70.6257C247.731 70.9659 247.555 71.2746 247.202 71.5518C246.874 71.829 246.414 72.0747 245.822 72.2889C245.23 72.4905 244.619 72.5913 243.989 72.5913ZM251.508 72.4023C251.18 72.4023 250.91 72.2952 250.695 72.081C250.481 71.8542 250.374 71.577 250.374 71.2494V63.4435C250.374 63.1159 250.481 62.845 250.695 62.6308C250.91 62.404 251.18 62.2906 251.508 62.2906C251.836 62.2906 252.107 62.404 252.321 62.6308C252.535 62.845 252.642 63.1159 252.642 63.4435V65.2202L252.51 63.9538C252.648 63.6514 252.825 63.3868 253.039 63.16C253.266 62.9206 253.518 62.7253 253.795 62.5741C254.072 62.4103 254.368 62.2906 254.683 62.215C254.998 62.1394 255.313 62.1016 255.628 62.1016C256.006 62.1016 256.321 62.2087 256.573 62.4229C256.838 62.6371 256.97 62.8891 256.97 63.1789C256.97 63.5947 256.863 63.8971 256.649 64.0861C256.435 64.2625 256.202 64.3507 255.95 64.3507C255.71 64.3507 255.49 64.3066 255.288 64.2184C255.099 64.1302 254.879 64.0861 254.627 64.0861C254.4 64.0861 254.167 64.1428 253.927 64.2562C253.701 64.357 253.486 64.5208 253.285 64.7476C253.096 64.9745 252.938 65.258 252.812 65.5982C252.699 65.9258 252.642 66.3164 252.642 66.77V71.2494C252.642 71.577 252.535 71.8542 252.321 72.081C252.107 72.2952 251.836 72.4023 251.508 72.4023ZM260.705 71.2494C260.705 71.577 260.598 71.8542 260.384 72.081C260.169 72.2952 259.899 72.4023 259.571 72.4023C259.243 72.4023 258.972 72.2952 258.758 72.081C258.544 71.8542 258.437 71.577 258.437 71.2494V63.4435C258.437 63.1159 258.544 62.845 258.758 62.6308C258.972 62.404 259.243 62.2906 259.571 62.2906C259.899 62.2906 260.169 62.404 260.384 62.6308C260.598 62.845 260.705 63.1159 260.705 63.4435V71.2494ZM259.552 61.062C259.124 61.062 258.821 60.9927 258.645 60.8541C258.468 60.7155 258.38 60.4698 258.38 60.117V59.7579C258.38 59.3925 258.475 59.1468 258.664 59.0208C258.865 58.8822 259.168 58.8129 259.571 58.8129C260.012 58.8129 260.321 58.8822 260.497 59.0208C260.673 59.1594 260.762 59.4051 260.762 59.7579V60.117C260.762 60.4824 260.667 60.7344 260.478 60.873C260.289 60.999 259.98 61.062 259.552 61.062ZM267.799 72.5913C266.728 72.5913 265.795 72.3708 265.002 71.9298C264.22 71.4762 263.615 70.8651 263.187 70.0965C262.771 69.3279 262.563 68.4584 262.563 67.4882C262.563 66.3542 262.79 65.3903 263.244 64.5964C263.71 63.79 264.315 63.1726 265.058 62.7442C265.802 62.3158 266.589 62.1016 267.421 62.1016C268.063 62.1016 268.668 62.2339 269.235 62.4985C269.815 62.7631 270.325 63.1285 270.766 63.5947C271.207 64.0483 271.554 64.5775 271.806 65.1824C272.07 65.7872 272.203 66.4298 272.203 67.1102C272.19 67.4126 272.07 67.6583 271.844 67.8473C271.617 68.0363 271.352 68.1308 271.05 68.1308H263.83L263.263 66.2408H270.199L269.783 66.6188V66.1085C269.758 65.7431 269.626 65.4155 269.386 65.1257C269.16 64.8358 268.87 64.609 268.517 64.4452C268.177 64.2688 267.811 64.1806 267.421 64.1806C267.043 64.1806 266.69 64.231 266.362 64.3318C266.035 64.4326 265.751 64.6027 265.512 64.8421C265.272 65.0816 265.083 65.4029 264.945 65.8061C264.806 66.2093 264.737 66.7196 264.737 67.337C264.737 68.0174 264.876 68.597 265.153 69.0759C265.443 69.5421 265.808 69.9012 266.249 70.1532C266.703 70.3926 267.181 70.5123 267.685 70.5123C268.152 70.5123 268.523 70.4745 268.801 70.3989C269.078 70.3233 269.298 70.2351 269.462 70.1343C269.638 70.0209 269.796 69.9264 269.935 69.8508C270.161 69.7374 270.376 69.6807 270.577 69.6807C270.854 69.6807 271.081 69.7752 271.258 69.9642C271.447 70.1532 271.541 70.3737 271.541 70.6257C271.541 70.9659 271.365 71.2746 271.012 71.5518C270.684 71.829 270.224 72.0747 269.632 72.2889C269.04 72.4905 268.429 72.5913 267.799 72.5913ZM279.59 62.1016C280.522 62.1016 281.228 62.2969 281.707 62.6875C282.198 63.0781 282.532 63.601 282.708 64.2562C282.897 64.8988 282.992 65.6171 282.992 66.4109V71.2494C282.992 71.577 282.885 71.8542 282.671 72.081C282.456 72.2952 282.185 72.4023 281.858 72.4023C281.53 72.4023 281.259 72.2952 281.045 72.081C280.831 71.8542 280.724 71.577 280.724 71.2494V66.4109C280.724 65.9951 280.667 65.6234 280.554 65.2958C280.453 64.9556 280.264 64.6846 279.987 64.483C279.709 64.2814 279.313 64.1806 278.796 64.1806C278.292 64.1806 277.864 64.2814 277.511 64.483C277.17 64.6846 276.906 64.9556 276.717 65.2958C276.54 65.6234 276.452 65.9951 276.452 66.4109V71.2494C276.452 71.577 276.345 71.8542 276.131 72.081C275.917 72.2952 275.646 72.4023 275.318 72.4023C274.991 72.4023 274.72 72.2952 274.506 72.081C274.291 71.8542 274.184 71.577 274.184 71.2494V63.4435C274.184 63.1159 274.291 62.845 274.506 62.6308C274.72 62.404 274.991 62.2906 275.318 62.2906C275.646 62.2906 275.917 62.404 276.131 62.6308C276.345 62.845 276.452 63.1159 276.452 63.4435V64.2562L276.169 64.1995C276.282 63.9853 276.446 63.7585 276.66 63.5191C276.874 63.2671 277.126 63.034 277.416 62.8198C277.706 62.6056 278.034 62.4355 278.399 62.3095C278.764 62.1709 279.161 62.1016 279.59 62.1016ZM289.942 62.1016C290.66 62.1016 291.284 62.1772 291.813 62.3284C292.355 62.4796 292.77 62.6938 293.06 62.971C293.363 63.2356 293.514 63.5569 293.514 63.9349C293.514 64.1869 293.438 64.4263 293.287 64.6531C293.136 64.8673 292.915 64.9745 292.625 64.9745C292.424 64.9745 292.254 64.9493 292.115 64.8988C291.989 64.8358 291.876 64.7602 291.775 64.672C291.674 64.5838 291.554 64.5019 291.416 64.4263C291.29 64.3507 291.095 64.294 290.83 64.2562C290.578 64.2058 290.389 64.1806 290.263 64.1806C289.62 64.1806 289.072 64.3192 288.619 64.5964C288.178 64.8736 287.837 65.2517 287.598 65.7305C287.359 66.1967 287.239 66.7385 287.239 67.3559C287.239 67.9607 287.359 68.5025 287.598 68.9814C287.85 69.4476 288.19 69.8193 288.619 70.0965C289.06 70.3737 289.564 70.5123 290.131 70.5123C290.446 70.5123 290.717 70.4934 290.943 70.4556C291.17 70.4178 291.359 70.3611 291.51 70.2855C291.687 70.1847 291.844 70.0776 291.983 69.9642C292.121 69.8508 292.329 69.7941 292.607 69.7941C292.934 69.7941 293.186 69.9012 293.363 70.1154C293.539 70.317 293.627 70.569 293.627 70.8714C293.627 71.1864 293.451 71.4762 293.098 71.7408C292.745 71.9928 292.279 72.2007 291.699 72.3645C291.132 72.5157 290.515 72.5913 289.847 72.5913C288.852 72.5913 287.989 72.3645 287.258 71.9109C286.527 71.4447 285.96 70.8147 285.557 70.0209C285.166 69.2271 284.971 68.3387 284.971 67.3559C284.971 66.3227 285.179 65.4155 285.595 64.6342C286.023 63.8404 286.609 63.223 287.352 62.782C288.108 62.3284 288.971 62.1016 289.942 62.1016ZM300.026 72.5913C298.955 72.5913 298.022 72.3708 297.228 71.9298C296.447 71.4762 295.842 70.8651 295.414 70.0965C294.998 69.3279 294.79 68.4584 294.79 67.4882C294.79 66.3542 295.017 65.3903 295.471 64.5964C295.937 63.79 296.542 63.1726 297.285 62.7442C298.028 62.3158 298.816 62.1016 299.648 62.1016C300.29 62.1016 300.895 62.2339 301.462 62.4985C302.042 62.7631 302.552 63.1285 302.993 63.5947C303.434 64.0483 303.781 64.5775 304.033 65.1824C304.297 65.7872 304.429 66.4298 304.429 67.1102C304.417 67.4126 304.297 67.6583 304.07 67.8473C303.844 68.0363 303.579 68.1308 303.277 68.1308H296.057L295.49 66.2408H302.426L302.01 66.6188V66.1085C301.985 65.7431 301.853 65.4155 301.613 65.1257C301.386 64.8358 301.097 64.609 300.744 64.4452C300.404 64.2688 300.038 64.1806 299.648 64.1806C299.27 64.1806 298.917 64.231 298.589 64.3318C298.262 64.4326 297.978 64.6027 297.739 64.8421C297.499 65.0816 297.31 65.4029 297.172 65.8061C297.033 66.2093 296.964 66.7196 296.964 67.337C296.964 68.0174 297.102 68.597 297.38 69.0759C297.669 69.5421 298.035 69.9012 298.476 70.1532C298.929 70.3926 299.408 70.5123 299.912 70.5123C300.378 70.5123 300.75 70.4745 301.027 70.3989C301.305 70.3233 301.525 70.2351 301.689 70.1343C301.865 70.0209 302.023 69.9264 302.161 69.8508C302.388 69.7374 302.602 69.6807 302.804 69.6807C303.081 69.6807 303.308 69.7752 303.484 69.9642C303.673 70.1532 303.768 70.3737 303.768 70.6257C303.768 70.9659 303.592 71.2746 303.239 71.5518C302.911 71.829 302.451 72.0747 301.859 72.2889C301.267 72.4905 300.656 72.5913 300.026 72.5913Z" fill="white"/>
</svg>
