<svg width="313" height="48" viewBox="0 0 313 48" fill="none" xmlns="http://www.w3.org/2000/svg">
<rect width="313" height="48" rx="12" fill="#E6E6E6"/>
<path d="M20.1094 18.3C20.8774 18.3 21.56 18.444 22.1574 18.732C22.7547 19.02 23.256 19.4253 23.6614 19.948C24.0774 20.46 24.3867 21.0573 24.5894 21.74C24.8027 22.412 24.9094 23.132 24.9094 23.9C24.9094 24.9347 24.7227 25.8787 24.3494 26.732C23.976 27.5747 23.432 28.2467 22.7174 28.748C22.0134 29.2493 21.144 29.5 20.1094 29.5H16.2854C16.008 29.5 15.7734 29.4093 15.5814 29.228C15.4 29.036 15.3094 28.8013 15.3094 28.524V19.276C15.3094 18.9987 15.4 18.7693 15.5814 18.588C15.7734 18.396 16.008 18.3 16.2854 18.3H20.1094ZM19.9494 27.66C20.6214 27.66 21.1707 27.4893 21.5974 27.148C22.024 26.796 22.3334 26.3373 22.5254 25.772C22.728 25.196 22.8294 24.572 22.8294 23.9C22.8294 23.3987 22.7707 22.924 22.6534 22.476C22.5467 22.0173 22.376 21.6173 22.1414 21.276C21.9067 20.924 21.608 20.6467 21.2454 20.444C20.8827 20.2413 20.4507 20.14 19.9494 20.14H17.1494L17.3094 19.996V27.836L17.2134 27.66H19.9494ZM37.0509 23.9C37.0509 24.7 36.9175 25.4467 36.6509 26.14C36.3842 26.8333 36.0055 27.4467 35.5149 27.98C35.0349 28.5027 34.4589 28.9133 33.7869 29.212C33.1255 29.5107 32.4002 29.66 31.6109 29.66C30.8215 29.66 30.0962 29.5107 29.4349 29.212C28.7735 28.9133 28.1975 28.5027 27.7069 27.98C27.2269 27.4467 26.8535 26.8333 26.5869 26.14C26.3202 25.4467 26.1869 24.7 26.1869 23.9C26.1869 23.1 26.3202 22.3533 26.5869 21.66C26.8535 20.9667 27.2269 20.3587 27.7069 19.836C28.1975 19.3027 28.7735 18.8867 29.4349 18.588C30.0962 18.2893 30.8215 18.14 31.6109 18.14C32.4002 18.14 33.1255 18.2893 33.7869 18.588C34.4589 18.8867 35.0349 19.3027 35.5149 19.836C36.0055 20.3587 36.3842 20.9667 36.6509 21.66C36.9175 22.3533 37.0509 23.1 37.0509 23.9ZM34.9709 23.9C34.9709 23.1853 34.8269 22.54 34.5389 21.964C34.2509 21.3773 33.8562 20.9133 33.3549 20.572C32.8535 20.2307 32.2722 20.06 31.6109 20.06C30.9495 20.06 30.3682 20.2307 29.8669 20.572C29.3655 20.9133 28.9709 21.372 28.6829 21.948C28.4055 22.524 28.2669 23.1747 28.2669 23.9C28.2669 24.6147 28.4055 25.2653 28.6829 25.852C28.9709 26.428 29.3655 26.8867 29.8669 27.228C30.3682 27.5693 30.9495 27.74 31.6109 27.74C32.2722 27.74 32.8535 27.5693 33.3549 27.228C33.8562 26.8867 34.2509 26.428 34.5389 25.852C34.8269 25.2653 34.9709 24.6147 34.9709 23.9ZM51.4014 18.252C51.6467 18.252 51.8814 18.348 52.1054 18.54C52.3294 18.7213 52.4414 18.972 52.4414 19.292C52.4414 19.388 52.4254 19.4947 52.3934 19.612L49.2414 28.892C49.1774 29.084 49.06 29.2333 48.8894 29.34C48.7294 29.436 48.5587 29.4893 48.3774 29.5C48.196 29.5 48.0147 29.4467 47.8334 29.34C47.6627 29.2333 47.5294 29.0787 47.4334 28.876L45.0654 23.5L45.2094 23.596L42.8734 28.876C42.7774 29.0787 42.6387 29.2333 42.4574 29.34C42.2867 29.4467 42.1107 29.5 41.9294 29.5C41.7587 29.4893 41.588 29.436 41.4174 29.34C41.2467 29.2333 41.1294 29.084 41.0654 28.892L37.9134 19.612C37.8814 19.4947 37.8654 19.388 37.8654 19.292C37.8654 18.972 37.9774 18.7213 38.2014 18.54C38.436 18.348 38.676 18.252 38.9214 18.252C39.124 18.252 39.3107 18.3053 39.4814 18.412C39.6627 18.5187 39.7854 18.6733 39.8494 18.876L42.3934 26.588L42.0414 26.572L44.3134 21.116C44.3987 20.924 44.5214 20.7747 44.6814 20.668C44.8414 20.5507 45.0227 20.4973 45.2254 20.508C45.428 20.4973 45.6094 20.5507 45.7694 20.668C45.9294 20.7747 46.0467 20.924 46.1214 21.116L48.2014 26.332L47.9454 26.492L50.4574 18.876C50.5214 18.6733 50.644 18.5187 50.8254 18.412C51.0067 18.3053 51.1987 18.252 51.4014 18.252ZM62.3991 18.3C62.6551 18.3 62.8631 18.3853 63.0231 18.556C63.1831 18.7267 63.2631 18.94 63.2631 19.196V28.524C63.2631 28.8013 63.1671 29.036 62.9751 29.228C62.7938 29.4093 62.5645 29.5 62.2871 29.5C62.1485 29.5 62.0045 29.4787 61.8551 29.436C61.7165 29.3827 61.6098 29.3133 61.5351 29.228L55.2471 21.244L55.6631 20.988V28.604C55.6631 28.86 55.5778 29.0733 55.4071 29.244C55.2471 29.4147 55.0338 29.5 54.7671 29.5C54.5111 29.5 54.3031 29.4147 54.1431 29.244C53.9831 29.0733 53.9031 28.86 53.9031 28.604V19.276C53.9031 18.9987 53.9938 18.7693 54.1751 18.588C54.3671 18.396 54.6018 18.3 54.8791 18.3C55.0285 18.3 55.1831 18.332 55.3431 18.396C55.5031 18.4493 55.6205 18.5347 55.6951 18.652L61.7911 26.428L61.5191 26.62V19.196C61.5191 18.94 61.5991 18.7267 61.7591 18.556C61.9191 18.3853 62.1325 18.3 62.3991 18.3ZM71.8448 27.628C72.1221 27.628 72.3514 27.7187 72.5328 27.9C72.7248 28.0707 72.8208 28.2947 72.8208 28.572C72.8208 28.8387 72.7248 29.0627 72.5328 29.244C72.3514 29.4147 72.1221 29.5 71.8448 29.5H66.6448C66.3674 29.5 66.1328 29.4093 65.9408 29.228C65.7594 29.036 65.6688 28.8013 65.6688 28.524V19.276C65.6688 18.9987 65.7648 18.7693 65.9568 18.588C66.1488 18.396 66.3941 18.3 66.6928 18.3C66.9488 18.3 67.1728 18.396 67.3648 18.588C67.5674 18.7693 67.6688 18.9987 67.6688 19.276V27.9L67.3168 27.628H71.8448ZM84.8009 23.9C84.8009 24.7 84.6675 25.4467 84.4009 26.14C84.1342 26.8333 83.7555 27.4467 83.2649 27.98C82.7849 28.5027 82.2089 28.9133 81.5369 29.212C80.8755 29.5107 80.1502 29.66 79.3609 29.66C78.5715 29.66 77.8462 29.5107 77.1849 29.212C76.5235 28.9133 75.9475 28.5027 75.4569 27.98C74.9769 27.4467 74.6035 26.8333 74.3369 26.14C74.0702 25.4467 73.9369 24.7 73.9369 23.9C73.9369 23.1 74.0702 22.3533 74.3369 21.66C74.6035 20.9667 74.9769 20.3587 75.4569 19.836C75.9475 19.3027 76.5235 18.8867 77.1849 18.588C77.8462 18.2893 78.5715 18.14 79.3609 18.14C80.1502 18.14 80.8755 18.2893 81.5369 18.588C82.2089 18.8867 82.7849 19.3027 83.2649 19.836C83.7555 20.3587 84.1342 20.9667 84.4009 21.66C84.6675 22.3533 84.8009 23.1 84.8009 23.9ZM82.7209 23.9C82.7209 23.1853 82.5769 22.54 82.2889 21.964C82.0009 21.3773 81.6062 20.9133 81.1049 20.572C80.6035 20.2307 80.0222 20.06 79.3609 20.06C78.6995 20.06 78.1182 20.2307 77.6169 20.572C77.1155 20.9133 76.7209 21.372 76.4329 21.948C76.1555 22.524 76.0169 23.1747 76.0169 23.9C76.0169 24.6147 76.1555 25.2653 76.4329 25.852C76.7209 26.428 77.1155 26.8867 77.6169 27.228C78.1182 27.5693 78.6995 27.74 79.3609 27.74C80.0222 27.74 80.6035 27.5693 81.1049 27.228C81.6062 26.8867 82.0009 26.428 82.2889 25.852C82.5769 25.2653 82.7209 24.6147 82.7209 23.9ZM90.6714 20.812L87.2154 28.94C87.1407 29.1427 87.0234 29.3027 86.8634 29.42C86.714 29.5267 86.5487 29.58 86.3674 29.58C86.0794 29.58 85.866 29.5 85.7274 29.34C85.5887 29.18 85.5194 28.9827 85.5194 28.748C85.5194 28.652 85.5354 28.5507 85.5674 28.444L89.5514 18.876C89.6367 18.6627 89.7647 18.4973 89.9354 18.38C90.1167 18.2627 90.3087 18.2147 90.5114 18.236C90.7034 18.236 90.8794 18.2947 91.0394 18.412C91.21 18.5187 91.3327 18.6733 91.4074 18.876L95.3434 28.252C95.3967 28.3907 95.4234 28.5187 95.4234 28.636C95.4234 28.924 95.3274 29.1533 95.1354 29.324C94.954 29.4947 94.7514 29.58 94.5274 29.58C94.3354 29.58 94.1594 29.5213 93.9994 29.404C93.85 29.2867 93.7327 29.1267 93.6474 28.924L90.2074 20.908L90.6714 20.812ZM87.7114 26.988L88.5914 25.148H92.9114L93.2154 26.988H87.7114ZM101.578 18.3C102.346 18.3 103.029 18.444 103.626 18.732C104.223 19.02 104.725 19.4253 105.13 19.948C105.546 20.46 105.855 21.0573 106.058 21.74C106.271 22.412 106.378 23.132 106.378 23.9C106.378 24.9347 106.191 25.8787 105.818 26.732C105.445 27.5747 104.901 28.2467 104.186 28.748C103.482 29.2493 102.613 29.5 101.578 29.5H97.7541C97.4768 29.5 97.2421 29.4093 97.0501 29.228C96.8688 29.036 96.7781 28.8013 96.7781 28.524V19.276C96.7781 18.9987 96.8688 18.7693 97.0501 18.588C97.2421 18.396 97.4768 18.3 97.7541 18.3H101.578ZM101.418 27.66C102.09 27.66 102.639 27.4893 103.066 27.148C103.493 26.796 103.802 26.3373 103.994 25.772C104.197 25.196 104.298 24.572 104.298 23.9C104.298 23.3987 104.239 22.924 104.122 22.476C104.015 22.0173 103.845 21.6173 103.61 21.276C103.375 20.924 103.077 20.6467 102.714 20.444C102.351 20.2413 101.919 20.14 101.418 20.14H98.6181L98.7781 19.996V27.836L98.6821 27.66H101.418ZM113.852 29.5C113.553 29.5 113.287 29.4093 113.052 29.228C112.817 29.036 112.7 28.8013 112.7 28.524V19.276C112.7 18.9987 112.791 18.7693 112.972 18.588C113.164 18.396 113.399 18.3 113.676 18.3H118.284C118.839 18.3 119.356 18.4493 119.836 18.748C120.327 19.036 120.721 19.4413 121.02 19.964C121.319 20.476 121.468 21.068 121.468 21.74C121.468 22.1453 121.383 22.54 121.212 22.924C121.052 23.308 120.828 23.6547 120.54 23.964C120.263 24.2733 119.948 24.5133 119.596 24.684L119.612 24.316C119.911 24.476 120.156 24.668 120.348 24.892C120.551 25.1053 120.705 25.34 120.812 25.596C120.929 25.8413 120.999 26.108 121.02 26.396C121.063 26.6627 121.089 26.8973 121.1 27.1C121.121 27.3027 121.153 27.4733 121.196 27.612C121.249 27.7507 121.345 27.8573 121.484 27.932C121.719 28.0707 121.863 28.2733 121.916 28.54C121.98 28.796 121.921 29.0253 121.74 29.228C121.623 29.3667 121.473 29.4573 121.292 29.5C121.111 29.532 120.929 29.532 120.748 29.5C120.567 29.4573 120.417 29.404 120.3 29.34C120.119 29.2333 119.937 29.0787 119.756 28.876C119.575 28.6627 119.425 28.38 119.308 28.028C119.201 27.676 119.148 27.2227 119.148 26.668C119.148 26.4867 119.116 26.3213 119.052 26.172C118.988 26.012 118.897 25.8787 118.78 25.772C118.663 25.6547 118.513 25.5693 118.332 25.516C118.151 25.452 117.937 25.42 117.692 25.42H114.46L114.7 25.052V28.524C114.7 28.8013 114.625 29.036 114.476 29.228C114.327 29.4093 114.119 29.5 113.852 29.5ZM114.476 23.772H118.204C118.396 23.772 118.583 23.6867 118.764 23.516C118.945 23.3347 119.095 23.0947 119.212 22.796C119.329 22.4867 119.388 22.1507 119.388 21.788C119.388 21.3187 119.26 20.9293 119.004 20.62C118.759 20.3 118.492 20.14 118.204 20.14H114.508L114.7 19.628V24.156L114.476 23.772ZM124.66 18.3H130.02C130.298 18.3 130.527 18.3907 130.708 18.572C130.9 18.7427 130.996 18.9667 130.996 19.244C130.996 19.5107 130.9 19.7293 130.708 19.9C130.527 20.06 130.298 20.14 130.02 20.14H125.54L125.684 19.868V22.988L125.556 22.86H129.3C129.578 22.86 129.807 22.9507 129.988 23.132C130.18 23.3027 130.276 23.5267 130.276 23.804C130.276 24.0707 130.18 24.2893 129.988 24.46C129.807 24.62 129.578 24.7 129.3 24.7H125.604L125.684 24.572V27.804L125.556 27.66H130.02C130.298 27.66 130.527 27.756 130.708 27.948C130.9 28.1293 130.996 28.3427 130.996 28.588C130.996 28.8547 130.9 29.0733 130.708 29.244C130.527 29.4147 130.298 29.5 130.02 29.5H124.66C124.383 29.5 124.148 29.4093 123.956 29.228C123.775 29.036 123.684 28.8013 123.684 28.524V19.276C123.684 18.9987 123.775 18.7693 123.956 18.588C124.148 18.396 124.383 18.3 124.66 18.3ZM140.681 18.844C140.958 18.9827 141.118 19.2013 141.161 19.5C141.214 19.7987 141.139 20.0707 140.937 20.316C140.798 20.508 140.617 20.6147 140.393 20.636C140.179 20.6573 139.961 20.6147 139.737 20.508C139.481 20.3907 139.209 20.3 138.921 20.236C138.643 20.172 138.35 20.14 138.041 20.14C137.465 20.14 136.947 20.2307 136.489 20.412C136.041 20.5933 135.657 20.8547 135.337 21.196C135.017 21.5267 134.771 21.9213 134.601 22.38C134.441 22.8387 134.361 23.3453 134.361 23.9C134.361 24.5507 134.451 25.116 134.633 25.596C134.825 26.076 135.086 26.476 135.417 26.796C135.747 27.116 136.137 27.356 136.585 27.516C137.033 27.6653 137.518 27.74 138.041 27.74C138.329 27.74 138.617 27.7133 138.905 27.66C139.193 27.6067 139.47 27.5107 139.737 27.372C139.961 27.2653 140.179 27.228 140.393 27.26C140.617 27.292 140.803 27.404 140.953 27.596C141.166 27.8627 141.241 28.14 141.177 28.428C141.123 28.7053 140.963 28.908 140.697 29.036C140.419 29.1747 140.131 29.292 139.833 29.388C139.545 29.4733 139.251 29.5373 138.953 29.58C138.654 29.6333 138.35 29.66 138.041 29.66C137.273 29.66 136.542 29.5373 135.849 29.292C135.166 29.0467 134.553 28.684 134.009 28.204C133.475 27.724 133.054 27.1267 132.745 26.412C132.435 25.6867 132.281 24.8493 132.281 23.9C132.281 23.0787 132.419 22.3213 132.697 21.628C132.985 20.9347 133.385 20.3373 133.897 19.836C134.419 19.324 135.033 18.9293 135.737 18.652C136.441 18.364 137.209 18.22 138.041 18.22C138.51 18.22 138.969 18.2733 139.417 18.38C139.865 18.4867 140.286 18.6413 140.681 18.844ZM143.848 18.3H149.208C149.485 18.3 149.715 18.3907 149.896 18.572C150.088 18.7427 150.184 18.9667 150.184 19.244C150.184 19.5107 150.088 19.7293 149.896 19.9C149.715 20.06 149.485 20.14 149.208 20.14H144.728L144.872 19.868V22.988L144.744 22.86H148.488C148.765 22.86 148.995 22.9507 149.176 23.132C149.368 23.3027 149.464 23.5267 149.464 23.804C149.464 24.0707 149.368 24.2893 149.176 24.46C148.995 24.62 148.765 24.7 148.488 24.7H144.792L144.872 24.572V27.804L144.744 27.66H149.208C149.485 27.66 149.715 27.756 149.896 27.948C150.088 28.1293 150.184 28.3427 150.184 28.588C150.184 28.8547 150.088 29.0733 149.896 29.244C149.715 29.4147 149.485 29.5 149.208 29.5H143.848C143.571 29.5 143.336 29.4093 143.144 29.228C142.963 29.036 142.872 28.8013 142.872 28.524V19.276C142.872 18.9987 142.963 18.7693 143.144 18.588C143.336 18.396 143.571 18.3 143.848 18.3ZM154.028 28.524C154.028 28.8013 153.927 29.036 153.724 29.228C153.521 29.4093 153.287 29.5 153.02 29.5C152.721 29.5 152.481 29.4093 152.3 29.228C152.119 29.036 152.028 28.8013 152.028 28.524V19.276C152.028 18.9987 152.124 18.7693 152.316 18.588C152.508 18.396 152.753 18.3 153.052 18.3C153.308 18.3 153.532 18.396 153.724 18.588C153.927 18.7693 154.028 18.9987 154.028 19.276V28.524ZM161.058 18.3C161.613 18.3 162.13 18.46 162.61 18.78C163.101 19.1 163.496 19.532 163.794 20.076C164.093 20.62 164.242 21.228 164.242 21.9C164.242 22.5613 164.093 23.164 163.794 23.708C163.496 24.252 163.101 24.6893 162.61 25.02C162.13 25.34 161.613 25.5 161.058 25.5H158.114L158.274 25.212V28.524C158.274 28.8013 158.189 29.036 158.018 29.228C157.848 29.4093 157.624 29.5 157.346 29.5C157.08 29.5 156.861 29.4093 156.69 29.228C156.52 29.036 156.434 28.8013 156.434 28.524V19.276C156.434 18.9987 156.525 18.7693 156.706 18.588C156.898 18.396 157.133 18.3 157.41 18.3H161.058ZM161.058 23.676C161.261 23.676 161.458 23.5907 161.65 23.42C161.842 23.2493 162.002 23.0307 162.13 22.764C162.258 22.4867 162.322 22.1987 162.322 21.9C162.322 21.5907 162.258 21.3027 162.13 21.036C162.002 20.7693 161.842 20.556 161.65 20.396C161.458 20.2253 161.261 20.14 161.058 20.14H158.082L158.274 19.852V23.932L158.098 23.676H161.058ZM169.867 29.5C169.568 29.5 169.323 29.4093 169.131 29.228C168.939 29.036 168.843 28.8013 168.843 28.524V19.244H170.923V28.524C170.923 28.8013 170.822 29.036 170.619 29.228C170.427 29.4093 170.176 29.5 169.867 29.5ZM166.331 20.14C166.054 20.14 165.819 20.0547 165.627 19.884C165.446 19.7133 165.355 19.4893 165.355 19.212C165.355 18.9347 165.446 18.716 165.627 18.556C165.819 18.3853 166.054 18.3 166.331 18.3H173.435C173.712 18.3 173.942 18.3853 174.123 18.556C174.315 18.7267 174.411 18.9507 174.411 19.228C174.411 19.5053 174.315 19.7293 174.123 19.9C173.942 20.06 173.712 20.14 173.435 20.14H166.331Z" fill="black"/>
<path d="M291.19 34H282.81C279.17 34 277 31.83 277 28.19V19.82C277 16.17 279.17 14 282.81 14H291.18C294.82 14 296.99 16.17 296.99 19.81V28.19C297 31.83 294.83 34 291.19 34ZM283.47 27.02L286.47 30.02C286.54 30.09 286.62 30.14 286.71 30.18C286.89 30.26 287.1 30.26 287.28 30.18C287.37 30.14 287.45 30.09 287.52 30.02L290.52 27.02C290.81 26.73 290.81 26.25 290.52 25.96C290.37 25.81 290.18 25.74 289.99 25.74C289.8 25.74 289.61 25.81 289.46 25.96L287.74 27.68V21.49C287.74 21.08 287.4 20.74 286.99 20.74C286.58 20.74 286.24 21.08 286.24 21.49V27.68L284.52 25.96C284.23 25.67 283.75 25.67 283.46 25.96C283.17 26.25 283.18 26.72 283.47 27.02ZM293.24 18.78C291.23 18.11 289.12 17.77 287 17.77C284.88 17.77 282.77 18.11 280.76 18.78C280.37 18.91 280.16 19.34 280.29 19.73C280.42 20.12 280.85 20.34 281.24 20.2C284.96 18.96 289.05 18.96 292.77 20.2C293.16 20.33 293.59 20.12 293.72 19.73C293.84 19.33 293.63 18.91 293.24 18.78Z" fill="black"/>
</svg>
