<svg width="45" height="45" viewBox="0 0 45 45" fill="none" xmlns="http://www.w3.org/2000/svg">
<path d="M19.1304 26.5446L19.8375 27.2517L20.5446 26.5446L30.1821 16.9071C30.3353 16.7539 30.6022 16.7539 30.7554 16.9071C30.9009 17.0526 30.9188 17.3066 30.7478 17.488L20.1241 28.1116C20.047 28.1887 19.9443 28.2313 19.8375 28.2313C19.7307 28.2313 19.628 28.1887 19.5509 28.1116L14.2446 22.8054C14.0914 22.6522 14.0914 22.3853 14.2446 22.2321C14.3978 22.0789 14.6647 22.0789 14.8179 22.2321L19.1304 26.5446ZM22.5 2.75C11.6165 2.75 2.75 11.6165 2.75 22.5C2.75 33.3835 11.6165 42.25 22.5 42.25C33.3835 42.25 42.25 33.3835 42.25 22.5C42.25 11.6165 33.3835 2.75 22.5 2.75Z" fill="#6CD800" stroke="black" stroke-width="2"/>
</svg>
