<svg width="91" height="24" viewBox="0 0 91 24" fill="none" xmlns="http://www.w3.org/2000/svg">
<path d="M20.04 6.81994L14.28 2.78994C12.71 1.68994 10.3 1.74994 8.79 2.91994L3.78 6.82994C2.78 7.60994 1.99 9.20994 1.99 10.4699V17.3699C1.99 19.9199 4.06 21.9999 6.61 21.9999H17.39C19.94 21.9999 22.01 19.9299 22.01 17.3799V10.5999C22.01 9.24994 21.14 7.58994 20.04 6.81994ZM12.75 17.9999C12.75 18.4099 12.41 18.7499 12 18.7499C11.59 18.7499 11.25 18.4099 11.25 17.9999V14.9999C11.25 14.5899 11.59 14.2499 12 14.2499C12.41 14.2499 12.75 14.5899 12.75 14.9999V17.9999Z" fill="#000000"/>
<path d="M42.34 5.9C42.544 5.9 42.718 5.972 42.862 6.116C43.006 6.248 43.078 6.422 43.078 6.638V17.762C43.078 17.966 43 18.14 42.844 18.284C42.7 18.428 42.526 18.5 42.322 18.5C42.094 18.5 41.914 18.428 41.782 18.284C41.65 18.14 41.584 17.966 41.584 17.762V6.638C41.584 6.422 41.656 6.248 41.8 6.116C41.944 5.972 42.124 5.9 42.34 5.9ZM50.638 5.9C50.854 5.9 51.028 5.972 51.16 6.116C51.304 6.248 51.376 6.422 51.376 6.638V17.762C51.376 17.966 51.304 18.14 51.16 18.284C51.016 18.428 50.836 18.5 50.62 18.5C50.416 18.5 50.242 18.428 50.098 18.284C49.954 18.14 49.882 17.966 49.882 17.762V6.638C49.882 6.422 49.954 6.248 50.098 6.116C50.254 5.972 50.434 5.9 50.638 5.9ZM42.268 11.39H50.656L50.638 12.794H42.214L42.268 11.39ZM63.1251 13.82C63.1251 14.756 62.9151 15.59 62.4951 16.322C62.0871 17.054 61.5291 17.63 60.8211 18.05C60.1251 18.47 59.3391 18.68 58.4631 18.68C57.5871 18.68 56.7951 18.47 56.0871 18.05C55.3791 17.63 54.8151 17.054 54.3951 16.322C53.9871 15.59 53.7831 14.756 53.7831 13.82C53.7831 12.884 53.9871 12.05 54.3951 11.318C54.8151 10.586 55.3791 10.01 56.0871 9.59C56.7951 9.17 57.5871 8.96 58.4631 8.96C59.3391 8.96 60.1251 9.17 60.8211 9.59C61.5291 10.01 62.0871 10.586 62.4951 11.318C62.9151 12.05 63.1251 12.884 63.1251 13.82ZM61.6851 13.82C61.6851 13.124 61.5411 12.512 61.2531 11.984C60.9771 11.456 60.5931 11.042 60.1011 10.742C59.6211 10.442 59.0751 10.292 58.4631 10.292C57.8511 10.292 57.2991 10.442 56.8071 10.742C56.3271 11.042 55.9431 11.456 55.6551 11.984C55.3671 12.512 55.2231 13.124 55.2231 13.82C55.2231 14.504 55.3671 15.11 55.6551 15.638C55.9431 16.166 56.3271 16.586 56.8071 16.898C57.2991 17.198 57.8511 17.348 58.4631 17.348C59.0751 17.348 59.6211 17.198 60.1011 16.898C60.5931 16.586 60.9771 16.166 61.2531 15.638C61.5411 15.11 61.6851 14.504 61.6851 13.82ZM69.737 9.05C70.553 9.05 71.213 9.26 71.717 9.68C72.233 10.088 72.575 10.67 72.743 11.426H72.473L72.599 11.102C72.743 10.766 72.989 10.442 73.337 10.13C73.685 9.818 74.087 9.56 74.543 9.356C74.999 9.152 75.473 9.05 75.965 9.05C76.757 9.05 77.381 9.224 77.837 9.572C78.293 9.908 78.617 10.364 78.809 10.94C79.013 11.504 79.115 12.14 79.115 12.848V17.762C79.115 17.966 79.043 18.14 78.899 18.284C78.767 18.428 78.599 18.5 78.395 18.5C78.179 18.5 78.005 18.428 77.873 18.284C77.741 18.14 77.675 17.966 77.675 17.762V12.884C77.675 12.416 77.603 11.996 77.459 11.624C77.327 11.24 77.105 10.94 76.793 10.724C76.493 10.496 76.079 10.382 75.551 10.382C75.059 10.382 74.609 10.496 74.201 10.724C73.793 10.94 73.469 11.24 73.229 11.624C72.989 11.996 72.869 12.416 72.869 12.884V17.762C72.869 17.966 72.803 18.14 72.671 18.284C72.539 18.428 72.365 18.5 72.149 18.5C71.945 18.5 71.771 18.428 71.627 18.284C71.495 18.14 71.429 17.966 71.429 17.762V12.83C71.429 12.374 71.363 11.966 71.231 11.606C71.111 11.234 70.901 10.94 70.601 10.724C70.301 10.496 69.887 10.382 69.359 10.382C68.879 10.382 68.441 10.496 68.045 10.724C67.649 10.94 67.331 11.234 67.091 11.606C66.851 11.966 66.731 12.374 66.731 12.83V17.762C66.731 17.966 66.659 18.14 66.515 18.284C66.383 18.428 66.215 18.5 66.011 18.5C65.807 18.5 65.633 18.428 65.489 18.284C65.357 18.14 65.291 17.966 65.291 17.762V9.914C65.291 9.71 65.357 9.542 65.489 9.41C65.633 9.266 65.807 9.194 66.011 9.194C66.227 9.194 66.401 9.266 66.533 9.41C66.665 9.542 66.731 9.71 66.731 9.914V11.282L66.335 11.714C66.383 11.402 66.503 11.09 66.695 10.778C66.899 10.466 67.157 10.178 67.469 9.914C67.781 9.65 68.129 9.44 68.513 9.284C68.897 9.128 69.305 9.05 69.737 9.05ZM86.0813 18.68C85.1213 18.68 84.2813 18.476 83.5613 18.068C82.8413 17.66 82.2773 17.102 81.8693 16.394C81.4733 15.674 81.2753 14.846 81.2753 13.91C81.2753 12.866 81.4793 11.978 81.8873 11.246C82.3073 10.502 82.8473 9.938 83.5073 9.554C84.1793 9.158 84.8873 8.96 85.6313 8.96C86.1833 8.96 86.7173 9.062 87.2333 9.266C87.7493 9.47 88.2053 9.77 88.6013 10.166C88.9973 10.55 89.3153 11.018 89.5553 11.57C89.7953 12.11 89.9213 12.716 89.9333 13.388C89.9333 13.58 89.8613 13.742 89.7173 13.874C89.5733 14.006 89.4053 14.072 89.2133 14.072H82.1033L81.7793 12.83H88.7093L88.4213 13.082V12.686C88.3733 12.194 88.2053 11.774 87.9173 11.426C87.6413 11.066 87.2993 10.79 86.8913 10.598C86.4953 10.406 86.0753 10.31 85.6313 10.31C85.2713 10.31 84.9113 10.376 84.5513 10.508C84.2033 10.628 83.8853 10.832 83.5973 11.12C83.3213 11.396 83.0933 11.756 82.9133 12.2C82.7453 12.644 82.6613 13.178 82.6613 13.802C82.6613 14.498 82.7993 15.11 83.0753 15.638C83.3633 16.166 83.7593 16.586 84.2633 16.898C84.7673 17.198 85.3553 17.348 86.0273 17.348C86.4473 17.348 86.8133 17.294 87.1253 17.186C87.4373 17.078 87.7073 16.946 87.9353 16.79C88.1633 16.622 88.3553 16.454 88.5113 16.286C88.6673 16.178 88.8173 16.124 88.9613 16.124C89.1413 16.124 89.2853 16.184 89.3933 16.304C89.5133 16.424 89.5733 16.568 89.5733 16.736C89.5733 16.94 89.4773 17.12 89.2853 17.276C88.9493 17.648 88.4933 17.978 87.9173 18.266C87.3413 18.542 86.7293 18.68 86.0813 18.68Z" fill="#000000"/>
</svg>
