<svg width="91" height="24" viewBox="0 0 91 24" fill="none" xmlns="http://www.w3.org/2000/svg">
<path d="M17.91 10.7199H14.82V3.5199C14.82 1.8399 13.91 1.4999 12.8 2.7599L12 3.6699L5.23 11.3699C4.3 12.4199 4.69 13.2799 6.09 13.2799H9.18V20.4799C9.18 22.1599 10.09 22.4999 11.2 21.2399L12 20.3299L18.77 12.6299C19.7 11.5799 19.31 10.7199 17.91 10.7199Z" fill="#000000"/>
<path d="M43.078 17.762C43.078 17.966 43 18.14 42.844 18.284C42.7 18.428 42.526 18.5 42.322 18.5C42.094 18.5 41.914 18.428 41.782 18.284C41.65 18.14 41.584 17.966 41.584 17.762V6.638C41.584 6.422 41.656 6.248 41.8 6.116C41.944 5.972 42.124 5.9 42.34 5.9C42.544 5.9 42.718 5.972 42.862 6.116C43.006 6.248 43.078 6.422 43.078 6.638V17.762ZM50.6162 8.96C51.4322 8.96 52.0742 9.128 52.5422 9.464C53.0102 9.8 53.3402 10.25 53.5322 10.814C53.7362 11.378 53.8382 12.008 53.8382 12.704V17.762C53.8382 17.966 53.7662 18.14 53.6222 18.284C53.4902 18.428 53.3222 18.5 53.1182 18.5C52.9142 18.5 52.7402 18.428 52.5962 18.284C52.4642 18.14 52.3982 17.966 52.3982 17.762V12.74C52.3982 12.284 52.3262 11.876 52.1822 11.516C52.0502 11.144 51.8222 10.85 51.4982 10.634C51.1862 10.406 50.7542 10.292 50.2022 10.292C49.6982 10.292 49.2362 10.406 48.8162 10.634C48.3962 10.85 48.0602 11.144 47.8082 11.516C47.5562 11.876 47.4302 12.284 47.4302 12.74V17.762C47.4302 17.966 47.3582 18.14 47.2142 18.284C47.0822 18.428 46.9142 18.5 46.7102 18.5C46.5062 18.5 46.3322 18.428 46.1882 18.284C46.0562 18.14 45.9902 17.966 45.9902 17.762V9.914C45.9902 9.71 46.0562 9.542 46.1882 9.41C46.3322 9.266 46.5062 9.194 46.7102 9.194C46.9262 9.194 47.1002 9.266 47.2322 9.41C47.3642 9.542 47.4302 9.71 47.4302 9.914V11.192L47.0702 11.588C47.1302 11.276 47.2682 10.964 47.4842 10.652C47.7002 10.328 47.9702 10.04 48.2942 9.788C48.6182 9.536 48.9782 9.338 49.3742 9.194C49.7702 9.038 50.1842 8.96 50.6162 8.96ZM56.414 9.032C56.558 9.032 56.696 9.074 56.828 9.158C56.96 9.23 57.056 9.338 57.116 9.482L60.104 16.502L59.816 16.646L62.858 9.5C62.99 9.176 63.212 9.02 63.524 9.032C63.704 9.032 63.86 9.092 63.992 9.212C64.124 9.332 64.19 9.482 64.19 9.662C64.19 9.734 64.178 9.806 64.154 9.878C64.142 9.938 64.124 9.992 64.1 10.04L60.626 18.032C60.494 18.332 60.284 18.488 59.996 18.5C59.84 18.512 59.69 18.482 59.546 18.41C59.414 18.326 59.318 18.2 59.258 18.032L55.784 10.058C55.76 10.01 55.736 9.956 55.712 9.896C55.7 9.836 55.694 9.764 55.694 9.68C55.694 9.524 55.754 9.38 55.874 9.248C56.006 9.104 56.186 9.032 56.414 9.032ZM70.3488 18.68C69.3888 18.68 68.5488 18.476 67.8288 18.068C67.1088 17.66 66.5448 17.102 66.1368 16.394C65.7408 15.674 65.5428 14.846 65.5428 13.91C65.5428 12.866 65.7468 11.978 66.1548 11.246C66.5748 10.502 67.1148 9.938 67.7748 9.554C68.4468 9.158 69.1548 8.96 69.8988 8.96C70.4508 8.96 70.9848 9.062 71.5008 9.266C72.0168 9.47 72.4728 9.77 72.8688 10.166C73.2648 10.55 73.5828 11.018 73.8228 11.57C74.0628 12.11 74.1888 12.716 74.2008 13.388C74.2008 13.58 74.1288 13.742 73.9848 13.874C73.8408 14.006 73.6728 14.072 73.4808 14.072H66.3708L66.0468 12.83H72.9768L72.6888 13.082V12.686C72.6408 12.194 72.4728 11.774 72.1848 11.426C71.9088 11.066 71.5668 10.79 71.1588 10.598C70.7628 10.406 70.3428 10.31 69.8988 10.31C69.5388 10.31 69.1788 10.376 68.8188 10.508C68.4708 10.628 68.1528 10.832 67.8648 11.12C67.5888 11.396 67.3608 11.756 67.1808 12.2C67.0128 12.644 66.9288 13.178 66.9288 13.802C66.9288 14.498 67.0668 15.11 67.3428 15.638C67.6308 16.166 68.0268 16.586 68.5308 16.898C69.0348 17.198 69.6228 17.348 70.2948 17.348C70.7148 17.348 71.0808 17.294 71.3928 17.186C71.7048 17.078 71.9748 16.946 72.2028 16.79C72.4308 16.622 72.6228 16.454 72.7788 16.286C72.9348 16.178 73.0848 16.124 73.2288 16.124C73.4088 16.124 73.5528 16.184 73.6608 16.304C73.7808 16.424 73.8408 16.568 73.8408 16.736C73.8408 16.94 73.7448 17.12 73.5528 17.276C73.2168 17.648 72.7608 17.978 72.1848 18.266C71.6088 18.542 70.9968 18.68 70.3488 18.68ZM75.8432 17.024C75.7352 16.868 75.6872 16.706 75.6992 16.538C75.7112 16.358 75.8132 16.202 76.0052 16.07C76.1252 15.986 76.2632 15.95 76.4192 15.962C76.5872 15.974 76.7372 16.052 76.8692 16.196C77.2052 16.592 77.5892 16.91 78.0212 17.15C78.4532 17.378 78.9812 17.492 79.6052 17.492C79.8932 17.48 80.1812 17.432 80.4692 17.348C80.7572 17.264 80.9972 17.12 81.1892 16.916C81.3932 16.7 81.4952 16.418 81.4952 16.07C81.4952 15.734 81.3932 15.47 81.1892 15.278C80.9852 15.074 80.7212 14.912 80.3972 14.792C80.0732 14.66 79.7192 14.546 79.3352 14.45C78.9392 14.342 78.5492 14.222 78.1652 14.09C77.7812 13.946 77.4332 13.772 77.1212 13.568C76.8212 13.352 76.5752 13.088 76.3832 12.776C76.2032 12.452 76.1132 12.062 76.1132 11.606C76.1132 11.066 76.2572 10.598 76.5452 10.202C76.8452 9.806 77.2412 9.5 77.7332 9.284C78.2372 9.068 78.7832 8.96 79.3712 8.96C79.7072 8.96 80.0552 9.002 80.4152 9.086C80.7872 9.158 81.1472 9.29 81.4952 9.482C81.8432 9.662 82.1492 9.914 82.4132 10.238C82.5212 10.358 82.5812 10.508 82.5932 10.688C82.6052 10.868 82.5272 11.03 82.3592 11.174C82.2272 11.27 82.0772 11.312 81.9092 11.3C81.7532 11.288 81.6212 11.228 81.5132 11.12C81.2612 10.82 80.9432 10.592 80.5592 10.436C80.1872 10.268 79.7732 10.184 79.3172 10.184C79.0292 10.184 78.7472 10.226 78.4712 10.31C78.1952 10.394 77.9612 10.538 77.7692 10.742C77.5892 10.934 77.4992 11.204 77.4992 11.552C77.5112 11.876 77.6192 12.14 77.8232 12.344C78.0272 12.548 78.3032 12.716 78.6512 12.848C78.9992 12.968 79.3832 13.088 79.8032 13.208C80.1872 13.304 80.5532 13.418 80.9012 13.55C81.2612 13.67 81.5852 13.832 81.8732 14.036C82.1612 14.24 82.3892 14.504 82.5572 14.828C82.7252 15.14 82.8092 15.536 82.8092 16.016C82.8092 16.568 82.6532 17.048 82.3412 17.456C82.0292 17.852 81.6152 18.158 81.0992 18.374C80.5952 18.578 80.0492 18.68 79.4612 18.68C78.8012 18.68 78.1472 18.554 77.4992 18.302C76.8632 18.05 76.3112 17.624 75.8432 17.024ZM84.5306 9.248H88.7606C88.9526 9.248 89.1086 9.314 89.2286 9.446C89.3606 9.578 89.4266 9.734 89.4266 9.914C89.4266 10.106 89.3606 10.268 89.2286 10.4C89.1086 10.52 88.9526 10.58 88.7606 10.58H84.5306C84.3506 10.58 84.1946 10.514 84.0626 10.382C83.9306 10.25 83.8646 10.088 83.8646 9.896C83.8646 9.716 83.9306 9.566 84.0626 9.446C84.1946 9.314 84.3506 9.248 84.5306 9.248ZM86.4206 6.8C86.6246 6.8 86.7926 6.872 86.9246 7.016C87.0566 7.148 87.1226 7.316 87.1226 7.52V16.214C87.1226 16.502 87.1646 16.718 87.2486 16.862C87.3326 17.006 87.4406 17.108 87.5726 17.168C87.7166 17.216 87.8546 17.24 87.9866 17.24C88.1066 17.24 88.2086 17.222 88.2926 17.186C88.3886 17.138 88.4966 17.114 88.6166 17.114C88.7366 17.114 88.8446 17.174 88.9406 17.294C89.0486 17.402 89.1026 17.546 89.1026 17.726C89.1026 17.942 88.9766 18.128 88.7246 18.284C88.4726 18.428 88.1906 18.5 87.8786 18.5C87.7106 18.5 87.5006 18.488 87.2486 18.464C87.0086 18.44 86.7686 18.362 86.5286 18.23C86.2886 18.098 86.0846 17.882 85.9166 17.582C85.7606 17.27 85.6826 16.838 85.6826 16.286V7.52C85.6826 7.316 85.7546 7.148 85.8986 7.016C86.0426 6.872 86.2166 6.8 86.4206 6.8Z" fill="#000000"/>
</svg>
