<svg width="73" height="24" viewBox="0 0 73 24" fill="none" xmlns="http://www.w3.org/2000/svg">
<path d="M19 15C16.79 15 15 16.79 15 19C15 19.75 15.21 20.46 15.58 21.06C16.27 22.22 17.54 23 19 23C20.46 23 21.73 22.22 22.42 21.06C22.79 20.46 23 19.75 23 19C23 16.79 21.21 15 19 15ZM21.07 18.57L18.94 20.54C18.8 20.67 18.61 20.74 18.43 20.74C18.24 20.74 18.05 20.67 17.9 20.52L16.91 19.53C16.62 19.24 16.62 18.76 16.91 18.47C17.2 18.18 17.68 18.18 17.97 18.47L18.45 18.95L20.05 17.47C20.35 17.19 20.83 17.21 21.11 17.51C21.39 17.81 21.37 18.28 21.07 18.57Z" fill="#000000"/>
<path d="M22 7.5499V7.9999C22 8.5499 21.55 8.9999 21 8.9999H3C2.45 8.9999 2 8.5499 2 7.9999V7.5399C2 5.2499 3.85 3.3999 6.14 3.3999H17.85C20.14 3.3999 22 5.2599 22 7.5499Z" fill="#000000"/>
<path d="M2 11.5V16.46C2 18.75 3.85 20.6 6.14 20.6H12.4C12.98 20.6 13.48 20.11 13.43 19.53C13.29 18 13.78 16.34 15.14 15.02C15.7 14.47 16.39 14.05 17.14 13.81C18.39 13.41 19.6 13.46 20.67 13.82C21.32 14.04 22 13.57 22 12.88V11.49C22 10.94 21.55 10.49 21 10.49H3C2.45 10.5 2 10.95 2 11.5ZM8 17.25H6C5.59 17.25 5.25 16.91 5.25 16.5C5.25 16.09 5.59 15.75 6 15.75H8C8.41 15.75 8.75 16.09 8.75 16.5C8.75 16.91 8.41 17.25 8 17.25Z" fill="#000000"/>
<path d="M46.516 5.9C47.176 5.9 47.77 6.062 48.298 6.386C48.826 6.71 49.24 7.154 49.54 7.718C49.852 8.282 50.008 8.924 50.008 9.644C50.008 10.352 49.852 10.994 49.54 11.57C49.24 12.146 48.826 12.602 48.298 12.938C47.77 13.274 47.176 13.442 46.516 13.442H42.862L42.988 13.226V17.762C42.988 17.966 42.922 18.14 42.79 18.284C42.658 18.428 42.49 18.5 42.286 18.5C42.07 18.5 41.896 18.428 41.764 18.284C41.644 18.14 41.584 17.966 41.584 17.762V6.62C41.584 6.416 41.65 6.248 41.782 6.116C41.926 5.972 42.1 5.9 42.304 5.9H46.516ZM46.516 12.056C46.912 12.056 47.26 11.948 47.56 11.732C47.86 11.516 48.1 11.222 48.28 10.85C48.46 10.478 48.55 10.076 48.55 9.644C48.55 9.188 48.46 8.786 48.28 8.438C48.1 8.09 47.86 7.814 47.56 7.61C47.26 7.394 46.912 7.286 46.516 7.286H42.862L42.988 7.088V12.236L42.862 12.056H46.516ZM59.6875 9.104C59.8915 9.104 60.0595 9.176 60.1915 9.32C60.3355 9.452 60.4075 9.62 60.4075 9.824V17.762C60.4075 17.966 60.3355 18.14 60.1915 18.284C60.0595 18.428 59.8915 18.5 59.6875 18.5C59.4715 18.5 59.2975 18.428 59.1655 18.284C59.0335 18.14 58.9675 17.966 58.9675 17.762V16.052L59.3095 16.016C59.3095 16.28 59.2195 16.568 59.0395 16.88C58.8595 17.192 58.6135 17.486 58.3015 17.762C57.9895 18.026 57.6175 18.248 57.1855 18.428C56.7655 18.596 56.3095 18.68 55.8175 18.68C55.0015 18.68 54.2695 18.47 53.6215 18.05C52.9735 17.618 52.4575 17.036 52.0735 16.304C51.7015 15.572 51.5155 14.738 51.5155 13.802C51.5155 12.854 51.7015 12.02 52.0735 11.3C52.4575 10.568 52.9735 9.998 53.6215 9.59C54.2695 9.17 54.9895 8.96 55.7815 8.96C56.2975 8.96 56.7775 9.044 57.2215 9.212C57.6655 9.38 58.0495 9.608 58.3735 9.896C58.7095 10.184 58.9675 10.502 59.1475 10.85C59.3395 11.198 59.4355 11.546 59.4355 11.894L58.9675 11.786V9.824C58.9675 9.62 59.0335 9.452 59.1655 9.32C59.2975 9.176 59.4715 9.104 59.6875 9.104ZM55.9795 17.348C56.5795 17.348 57.1075 17.192 57.5635 16.88C58.0315 16.568 58.3915 16.148 58.6435 15.62C58.9075 15.08 59.0395 14.474 59.0395 13.802C59.0395 13.142 58.9075 12.548 58.6435 12.02C58.3915 11.48 58.0315 11.06 57.5635 10.76C57.1075 10.448 56.5795 10.292 55.9795 10.292C55.3915 10.292 54.8635 10.442 54.3955 10.742C53.9395 11.042 53.5795 11.456 53.3155 11.984C53.0515 12.512 52.9195 13.118 52.9195 13.802C52.9195 14.474 53.0455 15.08 53.2975 15.62C53.5615 16.148 53.9215 16.568 54.3775 16.88C54.8455 17.192 55.3795 17.348 55.9795 17.348ZM70.0421 9.05C70.2461 9.05 70.4141 9.122 70.5461 9.266C70.6901 9.398 70.7621 9.566 70.7621 9.77V17.618C70.7621 18.626 70.5641 19.46 70.1681 20.12C69.7721 20.792 69.2381 21.29 68.5661 21.614C67.9061 21.938 67.1561 22.1 66.3161 22.1C65.8481 22.1 65.3981 22.052 64.9661 21.956C64.5341 21.86 64.1801 21.734 63.9041 21.578C63.6761 21.47 63.5141 21.332 63.4181 21.164C63.3341 21.008 63.3221 20.84 63.3821 20.66C63.4661 20.444 63.5861 20.294 63.7421 20.21C63.9101 20.126 64.0841 20.126 64.2641 20.21C64.4561 20.294 64.7321 20.408 65.0921 20.552C65.4641 20.708 65.8781 20.786 66.3341 20.786C66.9581 20.786 67.4921 20.666 67.9361 20.426C68.3801 20.186 68.7221 19.832 68.9621 19.364C69.2021 18.908 69.3221 18.338 69.3221 17.654V16.376L69.5381 16.826C69.3461 17.198 69.0881 17.522 68.7641 17.798C68.4401 18.074 68.0681 18.29 67.6481 18.446C67.2281 18.602 66.7661 18.68 66.2621 18.68C65.5781 18.68 64.9961 18.536 64.5161 18.248C64.0481 17.948 63.6881 17.54 63.4361 17.024C63.1961 16.496 63.0761 15.89 63.0761 15.206V9.77C63.0761 9.566 63.1421 9.398 63.2741 9.266C63.4181 9.122 63.5921 9.05 63.7961 9.05C64.0121 9.05 64.1861 9.122 64.3181 9.266C64.4501 9.398 64.5161 9.566 64.5161 9.77V14.882C64.5161 15.698 64.6961 16.316 65.0561 16.736C65.4161 17.144 65.9741 17.348 66.7301 17.348C67.2101 17.348 67.6421 17.24 68.0261 17.024C68.4221 16.808 68.7341 16.514 68.9621 16.142C69.2021 15.758 69.3221 15.338 69.3221 14.882V9.77C69.3221 9.566 69.3881 9.398 69.5201 9.266C69.6521 9.122 69.8261 9.05 70.0421 9.05Z" fill="#000000"/>
</svg>
