<svg width="138" height="24" viewBox="0 0 138 24" fill="none" xmlns="http://www.w3.org/2000/svg">
<path d="M22 12C22 6.49 17.51 2 12 2C6.49 2 2 6.49 2 12C2 14.9 3.25 17.51 5.23 19.34C5.23 19.35 5.23 19.35 5.22 19.36C5.32 19.46 5.44 19.54 5.54 19.63C5.6 19.68 5.65 19.73 5.71 19.77C5.89 19.92 6.09 20.06 6.28 20.2C6.35 20.25 6.41 20.29 6.48 20.34C6.67 20.47 6.87 20.59 7.08 20.7C7.15 20.74 7.23 20.79 7.3 20.83C7.5 20.94 7.71 21.04 7.93 21.13C8.01 21.17 8.09 21.21 8.17 21.24C8.39 21.33 8.61 21.41 8.83 21.48C8.91 21.51 8.99 21.54 9.07 21.56C9.31 21.63 9.55 21.69 9.79 21.75C9.86 21.77 9.93 21.79 10.01 21.8C10.29 21.86 10.57 21.9 10.86 21.93C10.9 21.93 10.94 21.94 10.98 21.95C11.32 21.98 11.66 22 12 22C12.34 22 12.68 21.98 13.01 21.95C13.05 21.95 13.09 21.94 13.13 21.93C13.42 21.9 13.7 21.86 13.98 21.8C14.05 21.79 14.12 21.76 14.2 21.75C14.44 21.69 14.69 21.64 14.92 21.56C15 21.53 15.08 21.5 15.16 21.48C15.38 21.4 15.61 21.33 15.82 21.24C15.9 21.21 15.98 21.17 16.06 21.13C16.27 21.04 16.48 20.94 16.69 20.83C16.77 20.79 16.84 20.74 16.91 20.7C17.11 20.58 17.31 20.47 17.51 20.34C17.58 20.3 17.64 20.25 17.71 20.2C17.91 20.06 18.1 19.92 18.28 19.77C18.34 19.72 18.39 19.67 18.45 19.63C18.56 19.54 18.67 19.45 18.77 19.36C18.77 19.35 18.77 19.35 18.76 19.34C20.75 17.51 22 14.9 22 12ZM16.94 16.97C14.23 15.15 9.79 15.15 7.06 16.97C6.62 17.26 6.26 17.6 5.96 17.97C4.44 16.43 3.5 14.32 3.5 12C3.5 7.31 7.31 3.5 12 3.5C16.69 3.5 20.5 7.31 20.5 12C20.5 14.32 19.56 16.43 18.04 17.97C17.75 17.6 17.38 17.26 16.94 16.97Z" fill="#000000"/>
<path d="M12 6.92993C9.93 6.92993 8.25 8.60993 8.25 10.6799C8.25 12.7099 9.84 14.3599 11.95 14.4199C11.98 14.4199 12.02 14.4199 12.04 14.4199C12.06 14.4199 12.09 14.4199 12.11 14.4199C12.12 14.4199 12.13 14.4199 12.13 14.4199C14.15 14.3499 15.74 12.7099 15.75 10.6799C15.75 8.60993 14.07 6.92993 12 6.92993Z" fill="#000000"/>
<path d="M49.252 5.828C49.456 5.828 49.624 5.906 49.756 6.062C49.9 6.206 49.972 6.374 49.972 6.566C49.972 6.638 49.96 6.716 49.936 6.8C49.924 6.872 49.894 6.944 49.846 7.016L45.67 12.83L45.904 11.948V17.762C45.904 17.966 45.832 18.14 45.688 18.284C45.556 18.428 45.394 18.5 45.202 18.5C44.986 18.5 44.806 18.428 44.662 18.284C44.53 18.14 44.464 17.966 44.464 17.762V12.092L44.59 12.56L40.54 7.088C40.468 6.992 40.414 6.902 40.378 6.818C40.354 6.722 40.342 6.632 40.342 6.548C40.342 6.344 40.426 6.176 40.594 6.044C40.762 5.9 40.93 5.828 41.098 5.828C41.338 5.828 41.536 5.942 41.692 6.17L45.418 11.282L45.076 11.228L48.658 6.188C48.814 5.948 49.012 5.828 49.252 5.828ZM59.7325 13.82C59.7325 14.756 59.5225 15.59 59.1025 16.322C58.6945 17.054 58.1365 17.63 57.4285 18.05C56.7325 18.47 55.9465 18.68 55.0705 18.68C54.1945 18.68 53.4025 18.47 52.6945 18.05C51.9865 17.63 51.4225 17.054 51.0025 16.322C50.5945 15.59 50.3905 14.756 50.3905 13.82C50.3905 12.884 50.5945 12.05 51.0025 11.318C51.4225 10.586 51.9865 10.01 52.6945 9.59C53.4025 9.17 54.1945 8.96 55.0705 8.96C55.9465 8.96 56.7325 9.17 57.4285 9.59C58.1365 10.01 58.6945 10.586 59.1025 11.318C59.5225 12.05 59.7325 12.884 59.7325 13.82ZM58.2925 13.82C58.2925 13.124 58.1485 12.512 57.8605 11.984C57.5845 11.456 57.2005 11.042 56.7085 10.742C56.2285 10.442 55.6825 10.292 55.0705 10.292C54.4585 10.292 53.9065 10.442 53.4145 10.742C52.9345 11.042 52.5505 11.456 52.2625 11.984C51.9745 12.512 51.8305 13.124 51.8305 13.82C51.8305 14.504 51.9745 15.11 52.2625 15.638C52.5505 16.166 52.9345 16.586 53.4145 16.898C53.9065 17.198 54.4585 17.348 55.0705 17.348C55.6825 17.348 56.2285 17.198 56.7085 16.898C57.2005 16.586 57.5845 16.166 57.8605 15.638C58.1485 15.11 58.2925 14.504 58.2925 13.82ZM68.8644 9.194C69.0804 9.194 69.2544 9.266 69.3864 9.41C69.5184 9.542 69.5844 9.71 69.5844 9.914V14.828C69.5844 16.04 69.2424 16.982 68.5584 17.654C67.8864 18.314 66.9444 18.644 65.7324 18.644C64.5324 18.644 63.5904 18.314 62.9064 17.654C62.2344 16.982 61.8984 16.04 61.8984 14.828V9.914C61.8984 9.71 61.9644 9.542 62.0964 9.41C62.2404 9.266 62.4144 9.194 62.6184 9.194C62.8344 9.194 63.0084 9.266 63.1404 9.41C63.2724 9.542 63.3384 9.71 63.3384 9.914V14.828C63.3384 15.644 63.5484 16.262 63.9684 16.682C64.3884 17.102 64.9764 17.312 65.7324 17.312C66.5124 17.312 67.1064 17.102 67.5144 16.682C67.9344 16.262 68.1444 15.644 68.1444 14.828V9.914C68.1444 9.71 68.2104 9.542 68.3424 9.41C68.4864 9.266 68.6604 9.194 68.8644 9.194ZM72.9719 18.5C72.7679 18.5 72.5939 18.428 72.4499 18.284C72.3179 18.14 72.2519 17.966 72.2519 17.762V9.914C72.2519 9.71 72.3179 9.542 72.4499 9.41C72.5939 9.266 72.7679 9.194 72.9719 9.194C73.1879 9.194 73.3619 9.266 73.4939 9.41C73.6259 9.542 73.6919 9.71 73.6919 9.914V12.29L73.4759 11.912C73.5479 11.54 73.6739 11.18 73.8539 10.832C74.0459 10.472 74.2859 10.154 74.5739 9.878C74.8619 9.59 75.1919 9.368 75.5639 9.212C75.9359 9.044 76.3439 8.96 76.7879 8.96C77.0519 8.96 77.2919 9.026 77.5079 9.158C77.7359 9.278 77.8499 9.452 77.8499 9.68C77.8499 9.932 77.7839 10.118 77.6519 10.238C77.5199 10.358 77.3699 10.418 77.2019 10.418C77.0459 10.418 76.8959 10.388 76.7519 10.328C76.6079 10.256 76.4279 10.22 76.2119 10.22C75.9119 10.22 75.6119 10.304 75.3119 10.472C75.0239 10.628 74.7539 10.856 74.5019 11.156C74.2619 11.456 74.0639 11.798 73.9079 12.182C73.7639 12.554 73.6919 12.956 73.6919 13.388V17.762C73.6919 17.966 73.6199 18.14 73.4759 18.284C73.3439 18.428 73.1759 18.5 72.9719 18.5ZM89.6176 5.9C90.2776 5.9 90.8716 6.062 91.3996 6.386C91.9276 6.71 92.3416 7.154 92.6416 7.718C92.9536 8.282 93.1096 8.924 93.1096 9.644C93.1096 10.352 92.9536 10.994 92.6416 11.57C92.3416 12.146 91.9276 12.602 91.3996 12.938C90.8716 13.274 90.2776 13.442 89.6176 13.442H85.9636L86.0896 13.226V17.762C86.0896 17.966 86.0236 18.14 85.8916 18.284C85.7596 18.428 85.5916 18.5 85.3876 18.5C85.1716 18.5 84.9976 18.428 84.8656 18.284C84.7456 18.14 84.6856 17.966 84.6856 17.762V6.62C84.6856 6.416 84.7516 6.248 84.8836 6.116C85.0276 5.972 85.2016 5.9 85.4056 5.9H89.6176ZM89.6176 12.056C90.0136 12.056 90.3616 11.948 90.6616 11.732C90.9616 11.516 91.2016 11.222 91.3816 10.85C91.5616 10.478 91.6516 10.076 91.6516 9.644C91.6516 9.188 91.5616 8.786 91.3816 8.438C91.2016 8.09 90.9616 7.814 90.6616 7.61C90.3616 7.394 90.0136 7.286 89.6176 7.286H85.9636L86.0896 7.088V12.236L85.9636 12.056H89.6176ZM95.929 18.5C95.725 18.5 95.551 18.428 95.407 18.284C95.275 18.14 95.209 17.966 95.209 17.762V9.914C95.209 9.71 95.275 9.542 95.407 9.41C95.551 9.266 95.725 9.194 95.929 9.194C96.145 9.194 96.319 9.266 96.451 9.41C96.583 9.542 96.649 9.71 96.649 9.914V12.29L96.433 11.912C96.505 11.54 96.631 11.18 96.811 10.832C97.003 10.472 97.243 10.154 97.531 9.878C97.819 9.59 98.149 9.368 98.521 9.212C98.893 9.044 99.301 8.96 99.745 8.96C100.009 8.96 100.249 9.026 100.465 9.158C100.693 9.278 100.807 9.452 100.807 9.68C100.807 9.932 100.741 10.118 100.609 10.238C100.477 10.358 100.327 10.418 100.159 10.418C100.003 10.418 99.853 10.388 99.709 10.328C99.565 10.256 99.385 10.22 99.169 10.22C98.869 10.22 98.569 10.304 98.269 10.472C97.981 10.628 97.711 10.856 97.459 11.156C97.219 11.456 97.021 11.798 96.865 12.182C96.721 12.554 96.649 12.956 96.649 13.388V17.762C96.649 17.966 96.577 18.14 96.433 18.284C96.301 18.428 96.133 18.5 95.929 18.5ZM110.867 13.82C110.867 14.756 110.657 15.59 110.237 16.322C109.829 17.054 109.271 17.63 108.563 18.05C107.867 18.47 107.081 18.68 106.205 18.68C105.329 18.68 104.537 18.47 103.829 18.05C103.121 17.63 102.557 17.054 102.137 16.322C101.729 15.59 101.525 14.756 101.525 13.82C101.525 12.884 101.729 12.05 102.137 11.318C102.557 10.586 103.121 10.01 103.829 9.59C104.537 9.17 105.329 8.96 106.205 8.96C107.081 8.96 107.867 9.17 108.563 9.59C109.271 10.01 109.829 10.586 110.237 11.318C110.657 12.05 110.867 12.884 110.867 13.82ZM109.427 13.82C109.427 13.124 109.283 12.512 108.995 11.984C108.719 11.456 108.335 11.042 107.843 10.742C107.363 10.442 106.817 10.292 106.205 10.292C105.593 10.292 105.041 10.442 104.549 10.742C104.069 11.042 103.685 11.456 103.397 11.984C103.109 12.512 102.965 13.124 102.965 13.82C102.965 14.504 103.109 15.11 103.397 15.638C103.685 16.166 104.069 16.586 104.549 16.898C105.041 17.198 105.593 17.348 106.205 17.348C106.817 17.348 107.363 17.198 107.843 16.898C108.335 16.586 108.719 16.166 108.995 15.638C109.283 15.11 109.427 14.504 109.427 13.82ZM116.921 5.216C117.125 5.216 117.335 5.24 117.551 5.288C117.779 5.336 117.971 5.42 118.127 5.54C118.295 5.66 118.379 5.822 118.379 6.026C118.379 6.218 118.319 6.38 118.199 6.512C118.079 6.632 117.935 6.692 117.767 6.692C117.659 6.692 117.509 6.662 117.317 6.602C117.125 6.53 116.927 6.494 116.723 6.494C116.447 6.494 116.219 6.554 116.039 6.674C115.871 6.794 115.745 6.956 115.661 7.16C115.589 7.352 115.553 7.568 115.553 7.808V17.762C115.553 17.966 115.481 18.14 115.337 18.284C115.205 18.428 115.037 18.5 114.833 18.5C114.617 18.5 114.443 18.428 114.311 18.284C114.179 18.14 114.113 17.966 114.113 17.762V7.826C114.113 7.022 114.359 6.386 114.851 5.918C115.355 5.45 116.045 5.216 116.921 5.216ZM117.425 9.338C117.617 9.338 117.779 9.404 117.911 9.536C118.043 9.656 118.109 9.812 118.109 10.004C118.109 10.196 118.043 10.358 117.911 10.49C117.779 10.61 117.617 10.67 117.425 10.67H112.907C112.715 10.67 112.553 10.604 112.421 10.472C112.289 10.34 112.223 10.184 112.223 10.004C112.223 9.8 112.289 9.638 112.421 9.518C112.553 9.398 112.715 9.338 112.907 9.338H117.425ZM121.367 17.762C121.367 17.966 121.295 18.14 121.151 18.284C121.019 18.428 120.851 18.5 120.647 18.5C120.431 18.5 120.257 18.428 120.125 18.284C119.993 18.14 119.927 17.966 119.927 17.762V9.77C119.927 9.566 119.993 9.398 120.125 9.266C120.269 9.122 120.443 9.05 120.647 9.05C120.851 9.05 121.019 9.122 121.151 9.266C121.295 9.398 121.367 9.566 121.367 9.77V17.762ZM120.629 7.844C120.329 7.844 120.107 7.784 119.963 7.664C119.819 7.544 119.747 7.358 119.747 7.106V6.854C119.747 6.602 119.825 6.416 119.981 6.296C120.137 6.176 120.359 6.116 120.647 6.116C120.935 6.116 121.151 6.176 121.295 6.296C121.439 6.416 121.511 6.602 121.511 6.854V7.106C121.511 7.358 121.433 7.544 121.277 7.664C121.133 7.784 120.917 7.844 120.629 7.844ZM125.551 17.762C125.551 17.966 125.479 18.14 125.335 18.284C125.191 18.428 125.017 18.5 124.813 18.5C124.609 18.5 124.441 18.428 124.309 18.284C124.177 18.14 124.111 17.966 124.111 17.762V5.9C124.111 5.696 124.177 5.528 124.309 5.396C124.453 5.252 124.627 5.18 124.831 5.18C125.047 5.18 125.221 5.252 125.353 5.396C125.485 5.528 125.551 5.696 125.551 5.9V17.762ZM132.47 18.68C131.51 18.68 130.67 18.476 129.95 18.068C129.23 17.66 128.666 17.102 128.258 16.394C127.862 15.674 127.664 14.846 127.664 13.91C127.664 12.866 127.868 11.978 128.276 11.246C128.696 10.502 129.236 9.938 129.896 9.554C130.568 9.158 131.276 8.96 132.02 8.96C132.572 8.96 133.106 9.062 133.622 9.266C134.138 9.47 134.594 9.77 134.99 10.166C135.386 10.55 135.704 11.018 135.944 11.57C136.184 12.11 136.31 12.716 136.322 13.388C136.322 13.58 136.25 13.742 136.106 13.874C135.962 14.006 135.794 14.072 135.602 14.072H128.492L128.168 12.83H135.098L134.81 13.082V12.686C134.762 12.194 134.594 11.774 134.306 11.426C134.03 11.066 133.688 10.79 133.28 10.598C132.884 10.406 132.464 10.31 132.02 10.31C131.66 10.31 131.3 10.376 130.94 10.508C130.592 10.628 130.274 10.832 129.986 11.12C129.71 11.396 129.482 11.756 129.302 12.2C129.134 12.644 129.05 13.178 129.05 13.802C129.05 14.498 129.188 15.11 129.464 15.638C129.752 16.166 130.148 16.586 130.652 16.898C131.156 17.198 131.744 17.348 132.416 17.348C132.836 17.348 133.202 17.294 133.514 17.186C133.826 17.078 134.096 16.946 134.324 16.79C134.552 16.622 134.744 16.454 134.9 16.286C135.056 16.178 135.206 16.124 135.35 16.124C135.53 16.124 135.674 16.184 135.782 16.304C135.902 16.424 135.962 16.568 135.962 16.736C135.962 16.94 135.866 17.12 135.674 17.276C135.338 17.648 134.882 17.978 134.306 18.266C133.73 18.542 133.118 18.68 132.47 18.68Z" fill="#000000"/>
</svg>
