<svg width="82" height="24" viewBox="0 0 82 24" fill="none" xmlns="http://www.w3.org/2000/svg">
<path d="M5 15C4.06 15 3.19 15.33 2.5 15.88C1.58 16.61 1 17.74 1 19C1 19.75 1.21 20.46 1.58 21.06C2.27 22.22 3.54 23 5 23C6.01 23 6.93 22.63 7.63 22C7.94 21.74 8.21 21.42 8.42 21.06C8.79 20.46 9 19.75 9 19C9 16.79 7.21 15 5 15ZM7.07 18.57L4.94 20.54C4.8 20.67 4.61 20.74 4.43 20.74C4.24 20.74 4.05 20.67 3.9 20.52L2.91 19.53C2.62 19.24 2.62 18.76 2.91 18.47C3.2 18.18 3.68 18.18 3.97 18.47L4.45 18.95L6.05 17.47C6.35 17.19 6.83 17.21 7.11 17.51C7.39 17.81 7.37 18.29 7.07 18.57Z" fill="#000000"/>
<path d="M14.85 3.95005V7.75005H13.35V3.95005C13.35 3.68005 13.11 3.55005 12.95 3.55005C12.9 3.55005 12.85 3.56005 12.8 3.58005L4.87 6.57005C4.34 6.77005 4 7.27005 4 7.84005V8.51005C3.09 9.19005 2.5 10.28 2.5 11.51V7.84005C2.5 6.65005 3.23 5.59005 4.34 5.17005L12.28 2.17005C12.5 2.09005 12.73 2.05005 12.95 2.05005C13.95 2.05005 14.85 2.86005 14.85 3.95005Z" fill="#000000"/>
<path d="M21.5 14.5V15.5C21.5 15.77 21.29 15.99 21.01 16H19.55C19.02 16 18.54 15.61 18.5 15.09C18.47 14.78 18.59 14.49 18.79 14.29C18.97 14.1 19.22 14 19.49 14H21C21.29 14.01 21.5 14.23 21.5 14.5Z" fill="#000000"/>
<path d="M19.48 12.95H20.5C21.05 12.95 21.5 12.5 21.5 11.95V11.51C21.5 9.44 19.81 7.75 17.74 7.75H6.26C5.41 7.75 4.63 8.03 4 8.51C3.09 9.19 2.5 10.28 2.5 11.51V13.29C2.5 13.67 2.9 13.91 3.26 13.79C3.82 13.6 4.41 13.5 5 13.5C8.03 13.5 10.5 15.97 10.5 19C10.5 19.72 10.31 20.51 10.01 21.21C9.85 21.57 10.1 22 10.49 22H17.74C19.81 22 21.5 20.31 21.5 18.24V18.05C21.5 17.5 21.05 17.05 20.5 17.05H19.63C18.67 17.05 17.75 16.46 17.5 15.53C17.3 14.77 17.54 14.03 18.04 13.55C18.41 13.17 18.92 12.95 19.48 12.95ZM14 12.75H9C8.59 12.75 8.25 12.41 8.25 12C8.25 11.59 8.59 11.25 9 11.25H14C14.41 11.25 14.75 11.59 14.75 12C14.75 12.41 14.41 12.75 14 12.75Z" fill="#000000"/>
<path d="M45.256 18.68C44.368 18.68 43.588 18.548 42.916 18.284C42.244 18.02 41.596 17.6 40.972 17.024C40.888 16.94 40.816 16.85 40.756 16.754C40.708 16.646 40.684 16.532 40.684 16.412C40.684 16.22 40.75 16.052 40.882 15.908C41.026 15.752 41.2 15.674 41.404 15.674C41.572 15.674 41.722 15.74 41.854 15.872C42.322 16.328 42.826 16.676 43.366 16.916C43.918 17.156 44.536 17.276 45.22 17.276C45.748 17.276 46.222 17.192 46.642 17.024C47.074 16.856 47.416 16.622 47.668 16.322C47.92 16.022 48.046 15.674 48.046 15.278C48.034 14.798 47.89 14.402 47.614 14.09C47.35 13.778 46.978 13.52 46.498 13.316C46.03 13.1 45.484 12.92 44.86 12.776C44.308 12.644 43.798 12.482 43.33 12.29C42.874 12.098 42.478 11.864 42.142 11.588C41.806 11.3 41.542 10.958 41.35 10.562C41.17 10.154 41.08 9.68 41.08 9.14C41.08 8.456 41.26 7.856 41.62 7.34C41.98 6.824 42.478 6.428 43.114 6.152C43.75 5.864 44.482 5.72 45.31 5.72C46.042 5.72 46.732 5.84 47.38 6.08C48.04 6.32 48.568 6.65 48.964 7.07C49.204 7.298 49.324 7.52 49.324 7.736C49.324 7.916 49.246 8.084 49.09 8.24C48.946 8.384 48.778 8.456 48.586 8.456C48.454 8.456 48.334 8.408 48.226 8.312C48.022 8.084 47.764 7.88 47.452 7.7C47.14 7.52 46.798 7.376 46.426 7.268C46.054 7.16 45.682 7.106 45.31 7.106C44.758 7.106 44.272 7.19 43.852 7.358C43.432 7.514 43.102 7.742 42.862 8.042C42.634 8.33 42.52 8.678 42.52 9.086C42.52 9.542 42.652 9.92 42.916 10.22C43.18 10.508 43.534 10.748 43.978 10.94C44.422 11.12 44.914 11.282 45.454 11.426C46.042 11.57 46.582 11.738 47.074 11.93C47.578 12.11 48.01 12.338 48.37 12.614C48.73 12.89 49.006 13.244 49.198 13.676C49.402 14.096 49.504 14.618 49.504 15.242C49.504 15.902 49.318 16.49 48.946 17.006C48.574 17.522 48.064 17.93 47.416 18.23C46.78 18.518 46.06 18.668 45.256 18.68ZM59.3359 9.104C59.5399 9.104 59.7079 9.176 59.8399 9.32C59.9839 9.452 60.0559 9.62 60.0559 9.824V17.762C60.0559 17.966 59.9839 18.14 59.8399 18.284C59.7079 18.428 59.5399 18.5 59.3359 18.5C59.1199 18.5 58.9459 18.428 58.8139 18.284C58.6819 18.14 58.6159 17.966 58.6159 17.762V16.052L58.9579 16.016C58.9579 16.28 58.8679 16.568 58.6879 16.88C58.5079 17.192 58.2619 17.486 57.9499 17.762C57.6379 18.026 57.2659 18.248 56.8339 18.428C56.4139 18.596 55.9579 18.68 55.4659 18.68C54.6499 18.68 53.9179 18.47 53.2699 18.05C52.6219 17.618 52.1059 17.036 51.7219 16.304C51.3499 15.572 51.1639 14.738 51.1639 13.802C51.1639 12.854 51.3499 12.02 51.7219 11.3C52.1059 10.568 52.6219 9.998 53.2699 9.59C53.9179 9.17 54.6379 8.96 55.4299 8.96C55.9459 8.96 56.4259 9.044 56.8699 9.212C57.3139 9.38 57.6979 9.608 58.0219 9.896C58.3579 10.184 58.6159 10.502 58.7959 10.85C58.9879 11.198 59.0839 11.546 59.0839 11.894L58.6159 11.786V9.824C58.6159 9.62 58.6819 9.452 58.8139 9.32C58.9459 9.176 59.1199 9.104 59.3359 9.104ZM55.6279 17.348C56.2279 17.348 56.7559 17.192 57.2119 16.88C57.6799 16.568 58.0399 16.148 58.2919 15.62C58.5559 15.08 58.6879 14.474 58.6879 13.802C58.6879 13.142 58.5559 12.548 58.2919 12.02C58.0399 11.48 57.6799 11.06 57.2119 10.76C56.7559 10.448 56.2279 10.292 55.6279 10.292C55.0399 10.292 54.5119 10.442 54.0439 10.742C53.5879 11.042 53.2279 11.456 52.9639 11.984C52.6999 12.512 52.5679 13.118 52.5679 13.802C52.5679 14.474 52.6939 15.08 52.9459 15.62C53.2099 16.148 53.5699 16.568 54.0259 16.88C54.4939 17.192 55.0279 17.348 55.6279 17.348ZM62.5136 9.032C62.6576 9.032 62.7956 9.074 62.9276 9.158C63.0596 9.23 63.1556 9.338 63.2156 9.482L66.2036 16.502L65.9156 16.646L68.9576 9.5C69.0896 9.176 69.3116 9.02 69.6236 9.032C69.8036 9.032 69.9596 9.092 70.0916 9.212C70.2236 9.332 70.2896 9.482 70.2896 9.662C70.2896 9.734 70.2776 9.806 70.2536 9.878C70.2416 9.938 70.2236 9.992 70.1996 10.04L66.7256 18.032C66.5936 18.332 66.3836 18.488 66.0956 18.5C65.9396 18.512 65.7896 18.482 65.6456 18.41C65.5136 18.326 65.4176 18.2 65.3576 18.032L61.8836 10.058C61.8596 10.01 61.8356 9.956 61.8116 9.896C61.7996 9.836 61.7936 9.764 61.7936 9.68C61.7936 9.524 61.8536 9.38 61.9736 9.248C62.1056 9.104 62.2856 9.032 62.5136 9.032ZM76.4485 18.68C75.4885 18.68 74.6485 18.476 73.9285 18.068C73.2085 17.66 72.6445 17.102 72.2365 16.394C71.8405 15.674 71.6425 14.846 71.6425 13.91C71.6425 12.866 71.8465 11.978 72.2545 11.246C72.6745 10.502 73.2145 9.938 73.8745 9.554C74.5465 9.158 75.2545 8.96 75.9985 8.96C76.5505 8.96 77.0845 9.062 77.6005 9.266C78.1165 9.47 78.5725 9.77 78.9685 10.166C79.3645 10.55 79.6825 11.018 79.9225 11.57C80.1625 12.11 80.2885 12.716 80.3005 13.388C80.3005 13.58 80.2285 13.742 80.0845 13.874C79.9405 14.006 79.7725 14.072 79.5805 14.072H72.4705L72.1465 12.83H79.0765L78.7885 13.082V12.686C78.7405 12.194 78.5725 11.774 78.2845 11.426C78.0085 11.066 77.6665 10.79 77.2585 10.598C76.8625 10.406 76.4425 10.31 75.9985 10.31C75.6385 10.31 75.2785 10.376 74.9185 10.508C74.5705 10.628 74.2525 10.832 73.9645 11.12C73.6885 11.396 73.4605 11.756 73.2805 12.2C73.1125 12.644 73.0285 13.178 73.0285 13.802C73.0285 14.498 73.1665 15.11 73.4425 15.638C73.7305 16.166 74.1265 16.586 74.6305 16.898C75.1345 17.198 75.7225 17.348 76.3945 17.348C76.8145 17.348 77.1805 17.294 77.4925 17.186C77.8045 17.078 78.0745 16.946 78.3025 16.79C78.5305 16.622 78.7225 16.454 78.8785 16.286C79.0345 16.178 79.1845 16.124 79.3285 16.124C79.5085 16.124 79.6525 16.184 79.7605 16.304C79.8805 16.424 79.9405 16.568 79.9405 16.736C79.9405 16.94 79.8445 17.12 79.6525 17.276C79.3165 17.648 78.8605 17.978 78.2845 18.266C77.7085 18.542 77.0965 18.68 76.4485 18.68Z" fill="#000000"/>
</svg>
